<svg height="40" width="40" xmlns="http://www.w3.org/2000/svg" xmlns:xlink="http://www.w3.org/1999/xlink"><linearGradient id="a" x1="0%" x2="100%" y1="100%" y2="0%"><stop offset="0" stop-color="#055f4e"/><stop offset="1" stop-color="#56c0a7"/></linearGradient><g fill="none" fill-rule="evenodd"><path d="m0 0h40v40h-40z" fill="url(#a)"/><path d="m21 20v12.35l-13.231-12.35h13.23zm.699 13.958a.499.499 0 0 0 .3-.458v-14a.5.5 0 0 0 -.5-.5h-15a.5.5 0 0 0 -.34.866l15 14a.5.5 0 0 0 .54.092zm12.801.042a.504.504 0 0 1 -.336-.129l-10.5-9.5.672-.742 9.664 8.745v-25.374h-26.293l9.647 9.646-.708.708-10.5-10.5a.5.5 0 0 1 .354-.854h28a.5.5 0 0 1 .5.5v27a.499.499 0 0 1 -.5.5z" fill="#fff"/></g></svg>