<svg height="40" width="40" xmlns="http://www.w3.org/2000/svg" xmlns:xlink="http://www.w3.org/1999/xlink"><linearGradient id="a" x1="0%" x2="100%" y1="100%" y2="0%"><stop offset="0" stop-color="#c8511b"/><stop offset="1" stop-color="#f90"/></linearGradient><g fill="none" fill-rule="evenodd"><path d="m0 0h40v40h-40z" fill="url(#a)"/><path d="m24 17.962v-1.524a.505.505 0 0 0 -.5-.508h-7c-.275 0-.5.227-.5.508v7.113c0 .28.225.508.5.508h7c.275 0 .5-.227.5-.508zm1-3.049h1v1.017h-1.092c.056.16.092.329.092.508v1.524h1v1.016h-1v2.033h1v1.016h-1v1.524c0 .179-.036.349-.092.508h1.092v1.017h-1v1.016h-1v-1.11a1.462 1.462 0 0 1 -.5.094h-1.5v1.016h-1v-1.016h-2v1.016h-1v-1.016h-1.5c-.176 0-.343-.037-.5-.094v1.11h-1v-1.016h-1v-1.017h1.092a1.529 1.529 0 0 1 -.092-.508v-1.524h-1v-1.017h1v-2.033h-1v-1.016h1v-1.524c0-.18.036-.349.092-.508h-1.092v-1.017h1v-1.016h1v1.11c.157-.057.324-.094.5-.094h1.5v-1.016h1v1.016h2v-1.016h1v1.016h1.5c.176 0 .343.037.5.094v-1.11h1v1.016zm-4 16.923v-4.728h-1v4.728l-2.119-2.529-.762.66 3.381 4.033 3.381-4.033-.762-.66-2.119 2.53zm-11.824-13.995 2.489 2.153h-5.665v1.017h5.665l-2.489 2.153.648.774 3.971-3.435-3.971-3.436zm24.824 2.153h-5.665l2.489-2.153-.648-.774-3.971 3.436 3.971 3.435.648-.774-2.489-2.153h5.665zm-16.119-9.3-.762-.66 3.381-4.034 3.381 4.034-.762.66-2.119-2.53v4.717h-1v-4.716z" fill="#fff"/></g></svg>