<svg height="40" width="40" xmlns="http://www.w3.org/2000/svg" xmlns:xlink="http://www.w3.org/1999/xlink"><linearGradient id="a" x1="0%" x2="100%" y1="100%" y2="0%"><stop offset="0" stop-color="#1b660f"/><stop offset="1" stop-color="#6cae3e"/></linearGradient><g fill="none" fill-rule="evenodd"><path d="m0 0h40v40h-40z" fill="url(#a)"/><path d="m33 28h1v6h-6v-1h4.293l-4.647-4.646.708-.708 4.646 4.647zm-19.646.354-4.647 4.646h4.293v1h-6v-6h1v4.293l4.646-4.647zm20.646-22.354v6h-1v-4.293l-4.646 4.647-.708-.708 4.647-4.646h-4.293v-1zm-25.293 1 4.647 4.646-.708.708-4.646-4.647v4.293h-1v-6h6v1zm11.793 8.5c-3.572 0-5.5-1.04-5.5-1.464v-.036c0-.626 2.093-1.5 5.5-1.5s5.5.874 5.5 1.5v.036c0 .424-1.928 1.464-5.5 1.464zm0 12c-3.407 0-5.5-.874-5.5-1.5v-10.611c1.228.727 3.404 1.111 5.5 1.111s4.272-.384 5.5-1.111v10.611c0 .626-2.093 1.5-5.5 1.5zm0-16c-3.235 0-6.5.773-6.5 2.5v12c0 1.727 3.265 2.5 6.5 2.5s6.5-.773 6.5-2.5v-12c0-1.727-3.265-2.5-6.5-2.5z" fill="#fff"/></g></svg>