<svg height="40" width="40" xmlns="http://www.w3.org/2000/svg" xmlns:xlink="http://www.w3.org/1999/xlink"><linearGradient id="a" x1="0%" x2="100%" y1="100%" y2="0%"><stop offset="0" stop-color="#c8511b"/><stop offset="1" stop-color="#f90"/></linearGradient><g fill="none" fill-rule="evenodd"><path d="m0 0h40v40h-40z" fill="url(#a)"/><path d="m26.052 27-.052-13.052-13 .052v13.052zm.948-13h2v1h-2v2h2v1h-2v2h2v1h-2v2h2v1h-2v2h2v1h-2v.052a.95.95 0 0 1 -.948.948h-.052v2h-1v-2h-2v2h-1v-2h-2v2h-1v-2h-2v2h-1v-2h-2v2h-1v-2h-.052a.95.95 0 0 1 -.948-.948v-.052h-2v-1h2v-2h-2v-1h2v-2h-2v-1h2v-2h-2v-1h2v-2h-2v-1h2v-.052a.95.95 0 0 1 .948-.948h.052v-2h1v2h2v-2h1v2h2v-2h1v2h2v-2h1v2h2v-2h1v2h.052a.95.95 0 0 1 .948.948zm-6 19h-14v-14h2v-1h-1.938c-.585 0-1.062.477-1.062 1.062v13.876c0 .585.477 1.062 1.062 1.062h13.877c.585 0 1.061-.477 1.061-1.062v-1.938h-1zm13-25.938v13.876c0 .585-.476 1.062-1.061 1.062h-2.939v-1h3v-14h-14v3h-1v-2.938c0-.585.477-1.062 1.062-1.062h13.877c.585 0 1.061.477 1.061 1.062z" fill="#fff"/></g></svg>