<!-- Created with Inkscape (http://www.inkscape.org/) --><svg xmlns:inkscape="http://www.inkscape.org/namespaces/inkscape" xmlns:sodipodi="http://sodipodi.sourceforge.net/DTD/sodipodi-0.dtd" xmlns:xlink="http://www.w3.org/1999/xlink" xmlns="http://www.w3.org/2000/svg" xmlns:svg="http://www.w3.org/2000/svg" width="1200" height="900" viewBox="0 0 317.5 238.125" version="1.1" id="svg5" inkscape:version="1.1.2 (0a00cf5339, 2022-02-04)" sodipodi:docname="diagramy.tar" inkscape:export-filename="/home/kuba/bmw/4developers-wroclaw/img/timeout.png" inkscape:export-xdpi="300" inkscape:export-ydpi="300">
  <sodipodi:namedview id="namedview7" pagecolor="#ffffff" bordercolor="#666666" borderopacity="1.0" inkscape:pageshadow="2" inkscape:pageopacity="0.0" inkscape:pagecheckerboard="0" inkscape:document-units="mm" showgrid="true" showguides="false" inkscape:guide-bbox="true" inkscape:zoom="0.5020458" inkscape:cx="-42.824778" inkscape:cy="727.0253" inkscape:window-width="1920" inkscape:window-height="1043" inkscape:window-x="1920" inkscape:window-y="0" inkscape:window-maximized="1" inkscape:current-layer="layer3" width="1000px" units="px" inkscape:snap-object-midpoints="false" inkscape:snap-others="true" inkscape:snap-nodes="false" inkscape:snap-page="false" inkscape:snap-global="true" inkscape:snap-bbox="true" inkscape:snap-bbox-midpoints="true" inkscape:snap-center="true">
    <inkscape:grid type="xygrid" id="grid163600" spacingx="7.9375" spacingy="7.9375" dotted="false" empspacing="4"/>
  </sodipodi:namedview>
  <defs id="defs2">
    <linearGradient id="linearGradient50875" inkscape:swatch="solid">
      <stop style="stop-color:#000000;stop-opacity:1;" offset="0" id="stop50873"/>
    </linearGradient>
    <linearGradient id="linearGradient46069" inkscape:swatch="solid">
      <stop style="stop-color:#000000;stop-opacity:1;" offset="0" id="stop46067"/>
    </linearGradient>
    <linearGradient id="linearGradient43211" inkscape:swatch="solid">
      <stop style="stop-color:#000000;stop-opacity:1;" offset="0" id="stop43209"/>
    </linearGradient>
    <marker style="overflow:visible;" id="marker42569" refX="0.0" refY="0.0" orient="auto" inkscape:stockid="Arrow1Lend" inkscape:isstock="true">
      <path transform="scale(0.8) rotate(180) translate(12.5,0)" style="fill-rule:evenodd;fill:context-stroke;stroke:context-stroke;stroke-width:1.0pt;" d="M 0.0,0.0 L 5.0,-5.0 L -12.5,0.0 L 5.0,5.0 L 0.0,0.0 z " id="path1688"/>
    </marker>
    <linearGradient id="linearGradient42564" inkscape:swatch="solid">
      <stop style="stop-color:#000000;stop-opacity:1;" offset="0" id="stop42562"/>
    </linearGradient>
    <linearGradient id="linearGradient41770" inkscape:swatch="solid">
      <stop style="stop-color:#000000;stop-opacity:1;" offset="0" id="stop41768"/>
    </linearGradient>
    <linearGradient id="linearGradient10766" inkscape:swatch="solid">
      <stop style="stop-color:#d72b6b;stop-opacity:1;" offset="0" id="stop10764"/>
    </linearGradient>
    <linearGradient id="linearGradient3775" inkscape:swatch="solid">
      <stop style="stop-color:#000000;stop-opacity:1;" offset="0" id="stop3773"/>
    </linearGradient>
    <linearGradient id="linearGradient3508" inkscape:swatch="solid">
      <stop style="stop-color:#000000;stop-opacity:1;" offset="0" id="stop3506"/>
    </linearGradient>
    <linearGradient id="linearGradient2576" inkscape:swatch="solid">
      <stop style="stop-color:#000000;stop-opacity:1;" offset="0" id="stop2574"/>
    </linearGradient>
    <linearGradient id="linearGradient1681" inkscape:swatch="solid">
      <stop style="stop-color:#000000;stop-opacity:1;" offset="0" id="stop1679"/>
    </linearGradient>
    <linearGradient id="linearGradient258279" inkscape:swatch="solid">
      <stop style="stop-color:#000000;stop-opacity:1;" offset="0" id="stop258277"/>
    </linearGradient>
    <linearGradient id="linearGradient251843" inkscape:swatch="solid">
      <stop style="stop-color:#d72b6b;stop-opacity:1;" offset="0" id="stop251841"/>
    </linearGradient>
    <linearGradient id="linearGradient251837" inkscape:swatch="solid">
      <stop style="stop-color:#000000;stop-opacity:1;" offset="0" id="stop251835"/>
    </linearGradient>
    <marker style="overflow:visible" id="Arrow1Lend" refX="0" refY="0" orient="auto" inkscape:stockid="Arrow1Lend" inkscape:isstock="true">
      <path transform="matrix(-0.8,0,0,-0.8,-10,0)" style="fill:context-stroke;fill-rule:evenodd;stroke:context-stroke;stroke-width:1pt" d="M 0,0 5,-5 -12.5,0 5,5 Z" id="path124459"/>
    </marker>
    <linearGradient x1="0" y1="40" x2="40" y2="0" id="Arch_Amazon-App-Stream_32_svg__a" gradientUnits="userSpaceOnUse">
      <stop stop-color="#055F4E" offset="0%" id="stop193"/>
      <stop stop-color="#56C0A7" offset="100%" id="stop195"/>
    </linearGradient>
    <linearGradient inkscape:collect="always" xlink:href="#Arch_Amazon-App-Stream_32_svg__a" id="linearGradient5762" gradientUnits="userSpaceOnUse" x1="0" y1="40" x2="40" y2="0" gradientTransform="translate(-0.59656004,82.947658)"/>
    <linearGradient x1="0" y1="40" x2="40" y2="0" id="Arch_Amazon-EC2-Auto-Scaling_32_svg__a" gradientUnits="userSpaceOnUse">
      <stop stop-color="#C8511B" offset="0%" id="stop13019"/>
      <stop stop-color="#F90" offset="100%" id="stop13021"/>
    </linearGradient>
    <linearGradient x1="0" y1="40" x2="40" y2="0" id="Arch_Amazon-EventBridge_32_svg__a" gradientUnits="userSpaceOnUse">
      <stop stop-color="#B0084D" offset="0%" id="stop13042"/>
      <stop stop-color="#FF4F8B" offset="100%" id="stop13044"/>
    </linearGradient>
    <linearGradient x1="0" y1="40" x2="40" y2="0" id="Arch_Amazon-DynamoDB_32_svg__a" gradientUnits="userSpaceOnUse">
      <stop stop-color="#2E27AD" offset="0%" id="stop13065"/>
      <stop stop-color="#527FFF" offset="100%" id="stop13067"/>
    </linearGradient>
    <linearGradient x1="0" y1="40" x2="40" y2="0" id="Arch_AWS-Simple-Notification-Service_32_svg__a" gradientUnits="userSpaceOnUse">
      <stop stop-color="#B0084D" offset="0%" id="stop13111"/>
      <stop stop-color="#FF4F8B" offset="100%" id="stop13113"/>
    </linearGradient>
    <linearGradient x1="0" y1="40" x2="40" y2="0" id="Arch_Elastic-Load-Balancing_32_svg__a" gradientUnits="userSpaceOnUse">
      <stop stop-color="#4D27A8" offset="0%" id="stop13134"/>
      <stop stop-color="#A166FF" offset="100%" id="stop13136"/>
    </linearGradient>
    <linearGradient x1="0" y1="40" x2="40" y2="0" id="Arch_Amazon-Elastic-Block-Store_32_svg__a" gradientUnits="userSpaceOnUse">
      <stop stop-color="#1B660F" offset="0%" id="stop13180"/>
      <stop stop-color="#6CAE3E" offset="100%" id="stop13182"/>
    </linearGradient>
    <linearGradient inkscape:collect="always" xlink:href="#Arch_Amazon-App-Stream_32_svg__a" id="linearGradient42179" gradientUnits="userSpaceOnUse" gradientTransform="translate(-0.59656004,82.947658)" x1="0" y1="40" x2="40" y2="0"/>
    <linearGradient inkscape:collect="always" xlink:href="#Arch_Amazon-EventBridge_32_svg__a" id="linearGradient72931" gradientUnits="userSpaceOnUse" x1="0" y1="40" x2="40" y2="0"/>
    <linearGradient inkscape:collect="always" xlink:href="#Arch_Amazon-Elastic-Block-Store_32_svg__a" id="linearGradient104937" gradientUnits="userSpaceOnUse" x1="0" y1="40" x2="40" y2="0"/>
    <linearGradient inkscape:collect="always" xlink:href="#Arch_Amazon-EventBridge_32_svg__a" id="linearGradient124250" gradientUnits="userSpaceOnUse" x1="0" y1="40" x2="40" y2="0"/>
    <linearGradient inkscape:collect="always" xlink:href="#Arch_Amazon-Elastic-Block-Store_32_svg__a" id="linearGradient124252" gradientUnits="userSpaceOnUse" x1="0" y1="40" x2="40" y2="0"/>
    <linearGradient x1="0" y1="40" x2="40" y2="0" id="Arch_AWS-Lambda_32_svg__a-0" gradientUnits="userSpaceOnUse">
      <stop stop-color="#C8511B" offset="0%" id="stop197973"/>
      <stop stop-color="#F90" offset="100%" id="stop197975"/>
    </linearGradient>
    <linearGradient inkscape:collect="always" xlink:href="#Arch_AWS-Lambda_32_svg__a-0" id="linearGradient198795" gradientUnits="userSpaceOnUse" x1="0" y1="40" x2="40" y2="0"/>
    <linearGradient inkscape:collect="always" xlink:href="#Arch_Amazon-EC2-Auto-Scaling_32_svg__a" id="linearGradient240131" gradientUnits="userSpaceOnUse" x1="0" y1="40" x2="40" y2="0"/>
    <linearGradient inkscape:collect="always" xlink:href="#Arch_Amazon-EventBridge_32_svg__a" id="linearGradient248877" gradientUnits="userSpaceOnUse" x1="0" y1="40" x2="40" y2="0"/>
    <linearGradient inkscape:collect="always" xlink:href="#linearGradient251843" id="linearGradient251839" x1="287.19391" y1="79.375" x2="290.90103" y2="79.375" gradientUnits="userSpaceOnUse"/>
    <linearGradient inkscape:collect="always" xlink:href="#linearGradient251843" id="linearGradient251847" gradientUnits="userSpaceOnUse" x1="52.56237" y1="127" x2="138.49973" y2="127"/>
    <linearGradient inkscape:collect="always" xlink:href="#Arch_AWS-Simple-Notification-Service_32_svg__a" id="linearGradient256161" gradientUnits="userSpaceOnUse" x1="0" y1="40" x2="40" y2="0"/>
    <linearGradient inkscape:collect="always" xlink:href="#Arch_Amazon-EC2-Auto-Scaling_32_svg__a" id="linearGradient256574" gradientUnits="userSpaceOnUse" x1="0" y1="40" x2="40" y2="0"/>
    <linearGradient inkscape:collect="always" xlink:href="#Arch_Amazon-EventBridge_32_svg__a" id="linearGradient257442" gradientUnits="userSpaceOnUse" x1="0" y1="40" x2="40" y2="0"/>
    <linearGradient inkscape:collect="always" xlink:href="#linearGradient251843" id="linearGradient257444" gradientUnits="userSpaceOnUse" x1="287.19391" y1="79.375" x2="290.90103" y2="79.375" gradientTransform="translate(6.2507739)"/>
    <linearGradient inkscape:collect="always" xlink:href="#linearGradient251843" id="linearGradient2578" x1="107.97829" y1="123.17372" x2="295.52917" y2="123.17372" gradientUnits="userSpaceOnUse"/>
    <linearGradient inkscape:collect="always" xlink:href="#linearGradient251843" id="linearGradient3510" x1="199.50832" y1="161.72446" x2="203.21542" y2="161.72446" gradientUnits="userSpaceOnUse"/>
    <linearGradient inkscape:collect="always" xlink:href="#linearGradient251843" id="linearGradient3777" x1="214.77148" y1="162.02034" x2="279.04114" y2="162.02034" gradientUnits="userSpaceOnUse"/>
    <linearGradient inkscape:collect="always" xlink:href="#linearGradient3775" id="linearGradient10768" x1="121.28051" y1="195.26253" x2="186.63417" y2="195.26253" gradientUnits="userSpaceOnUse" gradientTransform="translate(-0.48454263)"/>
    <linearGradient inkscape:collect="always" xlink:href="#Arch_Amazon-EC2-Auto-Scaling_32_svg__a" id="linearGradient12673" gradientUnits="userSpaceOnUse" x1="0" y1="40" x2="40" y2="0"/>
    <linearGradient inkscape:collect="always" xlink:href="#linearGradient10766" id="linearGradient42566" x1="30.88114" y1="28.250118" x2="284.19095" y2="28.250118" gradientUnits="userSpaceOnUse"/>
    <linearGradient inkscape:collect="always" xlink:href="#linearGradient10766" id="linearGradient43213" x1="5.1197085" y1="126.87533" x2="95.620522" y2="126.87533" gradientUnits="userSpaceOnUse"/>
    <linearGradient inkscape:collect="always" xlink:href="#Arch_Amazon-EventBridge_32_svg__a" id="linearGradient49719" gradientUnits="userSpaceOnUse" x1="0" y1="40" x2="40" y2="0"/>
    <linearGradient inkscape:collect="always" xlink:href="#linearGradient10766" id="linearGradient50877" x1="41.828209" y1="116.24811" x2="63.362431" y2="116.24811" gradientUnits="userSpaceOnUse"/>
  </defs>
  <g inkscape:groupmode="layer" id="g252149" inkscape:label="events" style="display:inline">
    <g id="g252075" transform="translate(69.347452,208.8446)" style="display:inline">
      <text xml:space="preserve" style="font-style:normal;font-weight:normal;font-size:6.35px;line-height:1.25;font-family:sans-serif;text-align:center;text-anchor:middle;fill:#000000;fill-opacity:1;fill-rule:evenodd;stroke:none;stroke-width:0.264583" x="-95.143028" y="183.87775" id="text252067"><tspan sodipodi:role="line" id="tspan252065" x="-95.143028" y="183.87775" style="stroke-width:0.264583">lambda*</tspan></text>
      <g fill="none" fill-rule="evenodd" id="g252073" transform="matrix(0.26458333,0,0,0.26458333,-100.4347,165.28234)">
        <path d="M 0,0 H 40 V 40 H 0 Z" fill="url(#Arch_AWS-Lambda_32_svg__a)" id="path252069" style="fill:url(#linearGradient198795)"/>
        <path d="M 14.386,33 H 8.27 l 6.763,-14.426 3.064,6.44 L 14.387,33 Z M 15.471,17.202 A 0.49,0.49 0 0 0 15.029,16.92 h -0.002 a 0.493,0.493 0 0 0 -0.441,0.285 l -7.538,16.08 a 0.507,0.507 0 0 0 0.028,0.482 C 7.166,33.912 7.323,34 7.491,34 h 7.206 c 0.19,0 0.363,-0.111 0.445,-0.286 l 3.944,-8.489 A 0.508,0.508 0 0 0 19.084,24.793 Z M 32.018,33 H 26.136 L 16.666,12.289 A 0.491,0.491 0 0 0 16.222,12 H 12.37 l 0.005,-5 h 7.549 l 9.424,20.71 c 0.08,0.177 0.256,0.29 0.446,0.29 h 2.224 z m 0.49,-6 h -2.4 L 20.684,6.29 A 0.492,0.492 0 0 0 20.238,6 h -8.353 a 0.496,0.496 0 0 0 -0.491,0.5 l -0.006,6 c 0,0.132 0.052,0.259 0.144,0.354 A 0.488,0.488 0 0 0 11.879,13 h 4.032 l 9.468,20.711 C 25.459,33.887 25.633,34 25.824,34 h 6.686 a 0.495,0.495 0 0 0 0.491,-0.5 v -6 c 0,-0.276 -0.219,-0.5 -0.491,-0.5 z" fill="#ffffff" id="path252071"/>
      </g>
    </g>
    <g id="g252087" transform="translate(65.087501,70.679925)">
      <g id="g252085" transform="matrix(0.26458333,0,0,0.26458333,218.76667,-87.21679)" style="display:inline;fill:none;fill-rule:evenodd">
        <g id="g252079" transform="matrix(0.91364025,0,0,0.91364025,25.44929,427.94382)">
          <path d="M -0.59656004,82.947658 H 39.40344 V 122.94766 H -0.59656004 Z" fill="url(#Arch_Amazon-App-Stream_32_svg__a)" id="path252077" style="fill:#ffffff;stroke:#000000;stroke-width:3.77953;stroke-miterlimit:4;stroke-dasharray:none;stroke-opacity:1"/>
        </g>
        <text xml:space="preserve" style="font-style:normal;font-weight:normal;font-size:24px;line-height:1.25;font-family:sans-serif;text-align:center;text-anchor:middle;fill:#000000;fill-opacity:1;stroke:none" x="43.177055" y="572.28278" id="text252083"><tspan sodipodi:role="line" id="tspan252081" x="43.177055" y="572.28278">events</tspan></text>
      </g>
    </g>
    <g id="g252099" transform="translate(-122.20856,70.679923)">
      <g id="g252097" transform="matrix(0.26458333,0,0,0.26458333,218.76667,-87.21679)" style="display:inline;fill:none;fill-rule:evenodd">
        <g id="g252091" transform="matrix(0.91364025,0,0,0.91364025,25.44929,427.94382)">
          <path d="M -0.59656004,82.947658 H 39.40344 V 122.94766 H -0.59656004 Z" fill="url(#Arch_Amazon-App-Stream_32_svg__a)" id="path252089" style="fill:#ffffff;stroke:#000000;stroke-width:3.77953;stroke-miterlimit:4;stroke-dasharray:none;stroke-opacity:1"/>
        </g>
        <text xml:space="preserve" style="font-style:normal;font-weight:normal;font-size:24px;line-height:1.25;font-family:sans-serif;text-align:center;text-anchor:middle;fill:#000000;fill-opacity:1;stroke:none" x="43.177055" y="572.28278" id="text252095"><tspan sodipodi:role="line" id="tspan252093" x="43.177055" y="572.28278">orders</tspan></text>
      </g>
    </g>
    <path style="fill:none;stroke:#000000;stroke-width:0.365;stroke-linecap:butt;stroke-linejoin:miter;stroke-miterlimit:4;stroke-dasharray:none;stroke-opacity:1;marker-end:url(#Arrow1Lend)" d="M 108.00219,112.63938 V 46.819213" id="path252101" sodipodi:nodetypes="cc"/>
    <path style="fill:none;stroke:#000000;stroke-width:0.365;stroke-linecap:butt;stroke-linejoin:miter;stroke-miterlimit:4;stroke-dasharray:none;stroke-opacity:1;marker-end:url(#Arrow1Lend)" d="M 108.00219,112.63938 V 46.819213" id="path252103" sodipodi:nodetypes="cc"/>
    <g id="g252115" transform="matrix(0.26458333,0,0,0.26458333,59.462968,-109.37328)" style="display:inline;fill:none;fill-rule:evenodd">
      <g fill="none" fill-rule="evenodd" id="g252109" transform="translate(163.45534,502.00095)">
        <path d="M 0,0 H 40 V 40 H 0 Z" fill="url(#Arch_Amazon-EC2-Auto-Scaling_32_svg__a)" id="path252105" style="fill:url(#linearGradient256574)"/>
        <path d="M 24,17.962 V 16.438 A 0.505,0.505 0 0 0 23.5,15.93 h -7 c -0.275,0 -0.5,0.227 -0.5,0.508 v 7.113 c 0,0.28 0.225,0.508 0.5,0.508 h 7 c 0.275,0 0.5,-0.227 0.5,-0.508 z m 1,-3.049 h 1 V 15.93 H 24.908 C 24.964,16.09 25,16.259 25,16.438 v 1.524 h 1 v 1.016 h -1 v 2.033 h 1 v 1.016 h -1 v 1.524 c 0,0.179 -0.036,0.349 -0.092,0.508 H 26 v 1.017 h -1 v 1.016 h -1 v -1.11 a 1.462,1.462 0 0 1 -0.5,0.094 H 22 v 1.016 h -1 v -1.016 h -2 v 1.016 h -1 v -1.016 h -1.5 c -0.176,0 -0.343,-0.037 -0.5,-0.094 v 1.11 h -1 v -1.016 h -1 v -1.017 h 1.092 A 1.529,1.529 0 0 1 15,23.551 V 22.027 H 14 V 21.01 h 1 v -2.033 h -1 v -1.016 h 1 v -1.524 c 0,-0.18 0.036,-0.349 0.092,-0.508 H 14 v -1.017 h 1 v -1.016 h 1 v 1.11 c 0.157,-0.057 0.324,-0.094 0.5,-0.094 H 18 v -1.016 h 1 v 1.016 h 2 v -1.016 h 1 v 1.016 h 1.5 c 0.176,0 0.343,0.037 0.5,0.094 v -1.11 h 1 v 1.016 z m -4,16.923 v -4.728 h -1 v 4.728 L 17.881,29.307 17.119,29.967 20.5,34 23.881,29.967 23.119,29.307 21,31.837 Z M 9.176,17.841 11.665,19.994 H 6 v 1.017 h 5.665 l -2.489,2.153 0.648,0.774 3.971,-3.435 -3.971,-3.436 z M 34,19.994 h -5.665 l 2.489,-2.153 -0.648,-0.774 -3.971,3.436 3.971,3.435 0.648,-0.774 -2.489,-2.153 H 34 Z M 17.881,10.694 17.119,10.034 20.5,6 23.881,10.034 23.119,10.694 21,8.164 v 4.717 H 20 V 8.165 Z" fill="#ffffff" id="path252107"/>
      </g>
      <text xml:space="preserve" style="font-style:normal;font-weight:normal;font-size:24px;line-height:1.25;font-family:sans-serif;text-align:center;text-anchor:middle;fill:#000000;fill-opacity:1;stroke:none" x="183.45534" y="572.28278" id="text252113"><tspan sodipodi:role="line" id="tspan252111" x="183.45534" y="572.28278">asg</tspan></text>
    </g>
    <path style="display:inline;fill:#ff00ff;stroke:url(#linearGradient251847);stroke-width:0.365;stroke-linecap:butt;stroke-linejoin:miter;stroke-miterlimit:4;stroke-dasharray:none;stroke-opacity:1;marker-end:url(#Arrow1Lend)" d="M 39.051986,127 H 93.094542" id="path252117" sodipodi:nodetypes="cc"/>
    <text xml:space="preserve" style="font-style:normal;font-weight:normal;font-size:6.35px;line-height:1.25;font-family:sans-serif;display:inline;fill:#d72b6b;fill-opacity:1;stroke:none;stroke-width:0.264583" x="66.410507" y="124.48353" id="text252121"><tspan sodipodi:role="line" id="tspan252119" style="font-size:6.35px;text-align:center;text-anchor:middle;fill:#d72b6b;fill-opacity:1;stroke-width:0.264583" x="66.410507" y="124.48353">sqs</tspan></text>
    <g id="g252133" transform="matrix(0.26458333,0,0,0.26458333,-88.998897,56.273758)" style="display:inline;fill:none;fill-rule:evenodd">
      <g fill="none" fill-rule="evenodd" id="g252127" transform="translate(724.57106,502.00095)">
        <path d="M 0,0 H 40 V 40 H 0 Z" fill="url(#Arch_AWS-Simple-Notification-Service_32_svg__a)" id="path252123" style="fill:url(#linearGradient256161)"/>
        <path d="M 7.01,20.078 A 1.1,1.1 0 0 1 8.115,18.985 1.1,1.1 0 0 1 9.219,20.078 1.1,1.1 0 0 1 8.115,21.171 1.1,1.1 0 0 1 7.01,20.078 Z M 20.776,33 C 14.813,33 9.645,28.375 8.47,22.136 a 2.1,2.1 0 0 0 1.69,-1.558 h 2.949 v -1 h -2.95 A 2.104,2.104 0 0 0 8.506,18.024 C 9.72,12.252 14.838,8 20.776,8 23.709,8 26.13,8.643 27.97,9.911 L 28.545,9.09 C 26.534,7.703 23.92,7 20.776,7 14.266,7 8.672,11.726 7.468,18.096 6.62,18.368 6,19.149 6,20.078 6,20.994 6.602,21.766 7.431,22.049 8.591,28.894 14.24,34 20.776,34 c 3.285,0 6.788,-1.667 8.786,-3.094 l -0.59,-0.811 C 26.947,31.541 23.627,33 20.777,33 Z M 14.79,18.242 c 1.111,0.274 2.523,0.321 3.343,0.321 0.833,0 2.271,-0.047 3.402,-0.32 l -2.401,5.014 a 0.507,0.507 0 0 0 -0.048,0.215 v 2.324 l -1.957,0.915 v -3.239 a 0.514,0.514 0 0 0 -0.044,-0.206 z m 3.343,-1.757 c 2.314,0 3.554,0.311 3.951,0.52 -0.417,0.234 -1.745,0.558 -3.95,0.558 -2.184,0 -3.483,-0.327 -3.873,-0.558 0.37,-0.206 1.582,-0.52 3.872,-0.52 z m -1.78,11.438 a 0.511,0.511 0 0 0 0.486,0.03 l 2.968,-1.388 a 0.5,0.5 0 0 0 0.288,-0.452 V 23.584 L 23.004,17.51 A 0.806,0.806 0 0 0 23.193,17 c 0,-1.252 -2.751,-1.515 -5.06,-1.515 -2.266,0 -4.969,0.263 -4.969,1.515 0,0.19 0.067,0.355 0.18,0.502 l 2.775,6.077 V 27.5 c 0,0.172 0.088,0.331 0.235,0.423 z M 30.877,27 a 1.1,1.1 0 0 1 1.104,1.093 1.1,1.1 0 0 1 -1.104,1.093 A 1.1,1.1 0 0 1 29.773,28.093 1.1,1.1 0 0 1 30.876,27 Z m 0,-16.03 a 1.1,1.1 0 0 1 1.104,1.093 1.1,1.1 0 0 1 -1.104,1.093 1.1,1.1 0 0 1 -1.104,-1.093 1.1,1.1 0 0 1 1.104,-1.093 z m 1.01,8.015 a 1.1,1.1 0 0 1 1.104,1.093 1.1,1.1 0 0 1 -1.104,1.093 1.1,1.1 0 0 1 -1.104,-1.093 1.1,1.1 0 0 1 1.104,-1.093 z m -4.607,1.593 h 2.561 A 2.108,2.108 0 0 0 31.887,22.171 2.106,2.106 0 0 0 34,20.078 2.106,2.106 0 0 0 31.886,17.985 c -0.992,0 -1.818,0.681 -2.046,1.593 h -2.56 v -7.015 h 1.551 a 2.108,2.108 0 0 0 2.046,1.593 2.106,2.106 0 0 0 2.114,-2.093 2.106,2.106 0 0 0 -2.114,-2.093 c -0.991,0 -1.818,0.681 -2.046,1.593 h -2.056 a 0.502,0.502 0 0 0 -0.505,0.5 v 7.515 h -3.061 v 1 h 3.061 v 7.515 c 0,0.277 0.226,0.5 0.505,0.5 h 2.056 a 2.108,2.108 0 0 0 2.046,1.593 2.106,2.106 0 0 0 2.114,-2.093 A 2.106,2.106 0 0 0 30.876,26 c -0.991,0 -1.818,0.681 -2.046,1.593 h -1.55 z" fill="#ffffff" id="path252125"/>
      </g>
      <text xml:space="preserve" style="font-style:normal;font-weight:normal;font-size:24px;line-height:1.25;font-family:sans-serif;text-align:center;text-anchor:middle;fill:#000000;fill-opacity:1;stroke:none" x="744.57104" y="572.28278" id="text252131"><tspan sodipodi:role="line" id="tspan252129" x="744.57104" y="572.28278">sns</tspan></text>
    </g>
    <path style="display:inline;fill:none;stroke:#d72b6b;stroke-width:0.365;stroke-linecap:butt;stroke-linejoin:miter;stroke-miterlimit:4;stroke-dasharray:none;stroke-opacity:1;marker-end:url(#Arrow1Lend)" d="M 96.932446,194.52056 41.973877,139.34407" id="path252137" sodipodi:nodetypes="cc"/>
    <text xml:space="preserve" style="font-style:normal;font-weight:normal;font-size:6.35px;line-height:1.25;font-family:sans-serif;display:inline;fill:#d72b6b;fill-opacity:1;stroke:none;stroke-width:0.264583" x="84.589149" y="168.38351" id="text252141"><tspan sodipodi:role="line" id="tspan252139" style="font-size:6.35px;text-align:center;text-anchor:middle;fill:#d72b6b;fill-opacity:1;stroke-width:0.264583" x="84.589149" y="168.38351">sqs</tspan></text>
    <path style="display:inline;fill:#ff00ff;stroke:#d72b6b;stroke-width:0.365;stroke-linecap:butt;stroke-linejoin:miter;stroke-miterlimit:4;stroke-dasharray:none;stroke-opacity:1;marker-end:url(#Arrow1Lend)" d="M 120.94442,127 H 174.008" id="path252143" sodipodi:nodetypes="cc"/>
    <text xml:space="preserve" style="font-style:normal;font-weight:normal;font-size:6.35px;line-height:1.25;font-family:sans-serif;display:inline;fill:#d72b6b;fill-opacity:1;stroke:none;stroke-width:0.264583" x="147.81346" y="124.48353" id="text252147"><tspan sodipodi:role="line" id="tspan252145" style="font-size:6.35px;text-align:center;text-anchor:middle;fill:#d72b6b;fill-opacity:1;stroke-width:0.264583" x="147.81346" y="124.48353">sqs</tspan></text>
    <g id="g252163" transform="translate(-28.962055,71.4375)">
      <g id="g252161" transform="matrix(0.26458333,0,0,0.26458333,218.76667,-87.21679)" style="display:inline;fill:none;fill-rule:evenodd">
        <g id="g252155" transform="matrix(0.91364025,0,0,0.91364025,25.44929,427.94382)">
          <path d="M -0.59656004,82.947658 H 39.40344 V 122.94766 H -0.59656004 Z" fill="url(#Arch_Amazon-App-Stream_32_svg__a)" id="path252153" style="fill:#ffffff;stroke:#000000;stroke-width:3.77953;stroke-miterlimit:4;stroke-dasharray:none;stroke-opacity:1"/>
        </g>
        <text xml:space="preserve" style="font-style:normal;font-weight:normal;font-size:24px;line-height:1.25;font-family:sans-serif;text-align:center;text-anchor:middle;fill:#000000;fill-opacity:1;stroke:none" x="43.177055" y="572.28278" id="text252159"><tspan sodipodi:role="line" id="tspan252157" x="43.177055" y="572.28278">pending-orders</tspan></text>
      </g>
    </g>
    <path style="display:inline;fill:#ff00ff;stroke:#d72b6b;stroke-width:0.365;stroke-linecap:butt;stroke-linejoin:miter;stroke-miterlimit:4;stroke-dasharray:none;stroke-opacity:1;marker-end:url(#Arrow1Lend)" d="M 280.88609,127 H 227.82251" id="path256568" sodipodi:nodetypes="cc"/>
    <g id="g257415" transform="matrix(0.26458333,0,0,0.26458333,209.63736,-108.75781)" style="display:inline;fill:none;fill-rule:evenodd">
      <g fill="none" fill-rule="evenodd" id="g257409" transform="translate(303.73427,502.00095)">
        <path d="M 0,0 H 40 V 40 H 0 Z" fill="url(#Arch_Amazon-EventBridge_32_svg__a)" id="path257405" style="fill:url(#linearGradient257442)"/>
        <path d="m 11.056,28.594 a 2.09,2.09 0 0 1 -2.08,-2.096 2.09,2.09 0 0 1 2.08,-2.095 c 1.146,0 2.08,0.94 2.08,2.095 a 2.09,2.09 0 0 1 -2.08,2.096 z m 1.857,0.363 a 3.093,3.093 0 0 0 1.223,-2.459 c 0,-1.711 -1.382,-3.103 -3.08,-3.103 -0.42,0 -0.817,0.086 -1.181,0.24 L 8.076,20.496 10.438,16.374 9.573,15.87 7.067,20.245 a 0.504,0.504 0 0 0 0,0.503 l 1.966,3.43 a 3.09,3.09 0 0 0 -1.056,2.32 c 0,1.712 1.38,3.104 3.079,3.104 0.342,0 0.665,-0.07 0.973,-0.174 l 1.531,2.844 A 0.5,0.5 0 0 0 14,32.535 h 5.5 v -1.008 h -5.203 l -1.385,-2.57 z M 29.944,16.56 a 2.09,2.09 0 0 1 -2.08,-2.096 2.09,2.09 0 0 1 2.08,-2.096 2.09,2.09 0 0 1 2.078,2.096 2.09,2.09 0 0 1 -2.079,2.096 z m 2.023,0.224 a 3.095,3.095 0 0 0 1.055,-2.32 c 0,-1.711 -1.38,-3.104 -3.079,-3.104 -0.34,0 -0.662,0.07 -0.97,0.173 L 27.442,8.62 A 0.497,0.497 0 0 0 27,8.351 H 21.5 V 9.36 h 5.2 l 1.39,2.644 a 3.1,3.1 0 0 0 -1.226,2.462 c 0,1.71 1.381,3.103 3.08,3.103 0.42,0 0.818,-0.086 1.18,-0.24 l 1.799,3.14 -2.362,4.12 0.866,0.504 2.505,-4.373 a 0.504,0.504 0 0 0 0,-0.504 l -1.965,-3.43 z m -4.573,16.207 a 2.09,2.09 0 0 1 -2.08,-2.095 2.09,2.09 0 0 1 2.08,-2.095 2.09,2.09 0 0 1 2.079,2.095 2.09,2.09 0 0 1 -2.08,2.095 z m -9.19,-8.491 -2.293,-4.002 2.292,-4 h 4.584 l 2.294,4 -2.294,4.002 H 18.203 Z M 13.636,12.197 a 2.09,2.09 0 0 1 -2.08,-2.095 2.09,2.09 0 0 1 2.08,-2.095 c 1.146,0 2.08,0.94 2.08,2.095 a 2.09,2.09 0 0 1 -2.08,2.095 z m 13.758,15.596 c -0.625,0 -1.206,0.191 -1.692,0.515 l -2.07,-3.267 2.46,-4.29 a 0.504,0.504 0 0 0 0,-0.504 L 23.51,15.742 A 0.498,0.498 0 0 0 23.077,15.49 h -4.752 l -2.279,-3.481 a 3.088,3.088 0 0 0 0.67,-1.907 c 0,-1.711 -1.382,-3.103 -3.08,-3.103 -1.699,0 -3.08,1.392 -3.08,3.103 0,1.712 1.381,3.103 3.08,3.103 a 3.04,3.04 0 0 0 1.668,-0.502 l 2.09,3.194 -2.492,4.35 a 0.504,0.504 0 0 0 0,0.503 l 2.58,4.506 a 0.497,0.497 0 0 0 0.433,0.252 h 4.828 l 2.218,3.505 A 3.092,3.092 0 0 0 27.395,34 c 1.698,0 3.079,-1.393 3.079,-3.103 0,-1.712 -1.381,-3.103 -3.08,-3.103 z" fill="#ffffff" id="path257407"/>
      </g>
      <text xml:space="preserve" style="font-style:normal;font-weight:normal;font-size:24px;line-height:1.25;font-family:sans-serif;text-align:center;text-anchor:middle;fill:#000000;fill-opacity:1;stroke:none" x="323.73428" y="572.28278" id="text257413"><tspan sodipodi:role="line" id="tspan257411" x="323.73428" y="572.28278">event bridge</tspan></text>
    </g>
    <path style="display:inline;fill:#000000;stroke:#000000;stroke-width:0.365;stroke-linecap:butt;stroke-linejoin:miter;stroke-miterlimit:4;stroke-dasharray:none;stroke-opacity:1;marker-end:url(#Arrow1Lend)" d="M 119.22211,31.75 H 280.88546" id="path257417" sodipodi:nodetypes="cc"/>
    <path style="display:inline;fill:none;stroke:url(#linearGradient257444);stroke-width:0.365;stroke-linecap:butt;stroke-linejoin:miter;stroke-miterlimit:4;stroke-dasharray:none;stroke-opacity:1;marker-end:url(#Arrow1Lend)" d="M 295.29825,46.110616 V 111.93078" id="path257419" sodipodi:nodetypes="cc"/>
    <text xml:space="preserve" style="font-style:normal;font-weight:normal;font-size:6.35px;line-height:1.25;font-family:sans-serif;display:inline;fill:#d72b6b;fill-opacity:1;stroke:none;stroke-width:0.264583" x="302.13712" y="80.49276" id="text257423"><tspan sodipodi:role="line" id="tspan257421" style="font-size:6.35px;text-align:center;text-anchor:middle;fill:#d72b6b;fill-opacity:1;stroke-width:0.264583" x="302.13712" y="80.49276">sqs</tspan></text>
    <path style="display:inline;fill:#000000;stroke:#000000;stroke-width:0.365;stroke-linecap:butt;stroke-linejoin:miter;stroke-miterlimit:4;stroke-dasharray:none;stroke-opacity:1;marker-end:url(#Arrow1Lend)" d="M 119.22211,31.75 H 280.88546" id="path50111" sodipodi:nodetypes="cc"/>
  </g>
  </svg>