<!-- Created with Inkscape (http://www.inkscape.org/) --><svg xmlns:inkscape="http://www.inkscape.org/namespaces/inkscape" xmlns:sodipodi="http://sodipodi.sourceforge.net/DTD/sodipodi-0.dtd" xmlns:xlink="http://www.w3.org/1999/xlink" xmlns="http://www.w3.org/2000/svg" xmlns:svg="http://www.w3.org/2000/svg" width="1200" height="900" viewBox="0 0 317.5 238.125" version="1.1" id="svg5" inkscape:version="1.1.2 (0a00cf5339, 2022-02-04)" sodipodi:docname="diagramy.tar" inkscape:export-filename="/home/kuba/bmw/4developers-wroclaw/img/timeout.png" inkscape:export-xdpi="300" inkscape:export-ydpi="300">
  <sodipodi:namedview id="namedview7" pagecolor="#ffffff" bordercolor="#666666" borderopacity="1.0" inkscape:pageshadow="2" inkscape:pageopacity="0.0" inkscape:pagecheckerboard="0" inkscape:document-units="mm" showgrid="true" showguides="false" inkscape:guide-bbox="true" inkscape:zoom="0.5020458" inkscape:cx="-42.824778" inkscape:cy="727.0253" inkscape:window-width="1920" inkscape:window-height="1043" inkscape:window-x="1920" inkscape:window-y="0" inkscape:window-maximized="1" inkscape:current-layer="layer3" width="1000px" units="px" inkscape:snap-object-midpoints="false" inkscape:snap-others="true" inkscape:snap-nodes="false" inkscape:snap-page="false" inkscape:snap-global="true" inkscape:snap-bbox="true" inkscape:snap-bbox-midpoints="true" inkscape:snap-center="true">
    <inkscape:grid type="xygrid" id="grid163600" spacingx="7.9375" spacingy="7.9375" dotted="false" empspacing="4"/>
  </sodipodi:namedview>
  <defs id="defs2">
    <linearGradient id="linearGradient50875" inkscape:swatch="solid">
      <stop style="stop-color:#000000;stop-opacity:1;" offset="0" id="stop50873"/>
    </linearGradient>
    <linearGradient id="linearGradient46069" inkscape:swatch="solid">
      <stop style="stop-color:#000000;stop-opacity:1;" offset="0" id="stop46067"/>
    </linearGradient>
    <linearGradient id="linearGradient43211" inkscape:swatch="solid">
      <stop style="stop-color:#000000;stop-opacity:1;" offset="0" id="stop43209"/>
    </linearGradient>
    <marker style="overflow:visible;" id="marker42569" refX="0.0" refY="0.0" orient="auto" inkscape:stockid="Arrow1Lend" inkscape:isstock="true">
      <path transform="scale(0.8) rotate(180) translate(12.5,0)" style="fill-rule:evenodd;fill:context-stroke;stroke:context-stroke;stroke-width:1.0pt;" d="M 0.0,0.0 L 5.0,-5.0 L -12.5,0.0 L 5.0,5.0 L 0.0,0.0 z " id="path1688"/>
    </marker>
    <linearGradient id="linearGradient42564" inkscape:swatch="solid">
      <stop style="stop-color:#000000;stop-opacity:1;" offset="0" id="stop42562"/>
    </linearGradient>
    <linearGradient id="linearGradient41770" inkscape:swatch="solid">
      <stop style="stop-color:#000000;stop-opacity:1;" offset="0" id="stop41768"/>
    </linearGradient>
    <linearGradient id="linearGradient10766" inkscape:swatch="solid">
      <stop style="stop-color:#d72b6b;stop-opacity:1;" offset="0" id="stop10764"/>
    </linearGradient>
    <linearGradient id="linearGradient3775" inkscape:swatch="solid">
      <stop style="stop-color:#000000;stop-opacity:1;" offset="0" id="stop3773"/>
    </linearGradient>
    <linearGradient id="linearGradient3508" inkscape:swatch="solid">
      <stop style="stop-color:#000000;stop-opacity:1;" offset="0" id="stop3506"/>
    </linearGradient>
    <linearGradient id="linearGradient2576" inkscape:swatch="solid">
      <stop style="stop-color:#000000;stop-opacity:1;" offset="0" id="stop2574"/>
    </linearGradient>
    <linearGradient id="linearGradient1681" inkscape:swatch="solid">
      <stop style="stop-color:#000000;stop-opacity:1;" offset="0" id="stop1679"/>
    </linearGradient>
    <linearGradient id="linearGradient258279" inkscape:swatch="solid">
      <stop style="stop-color:#000000;stop-opacity:1;" offset="0" id="stop258277"/>
    </linearGradient>
    <linearGradient id="linearGradient251843" inkscape:swatch="solid">
      <stop style="stop-color:#d72b6b;stop-opacity:1;" offset="0" id="stop251841"/>
    </linearGradient>
    <linearGradient id="linearGradient251837" inkscape:swatch="solid">
      <stop style="stop-color:#000000;stop-opacity:1;" offset="0" id="stop251835"/>
    </linearGradient>
    <marker style="overflow:visible" id="Arrow1Lend" refX="0" refY="0" orient="auto" inkscape:stockid="Arrow1Lend" inkscape:isstock="true">
      <path transform="matrix(-0.8,0,0,-0.8,-10,0)" style="fill:context-stroke;fill-rule:evenodd;stroke:context-stroke;stroke-width:1pt" d="M 0,0 5,-5 -12.5,0 5,5 Z" id="path124459"/>
    </marker>
    <linearGradient x1="0" y1="40" x2="40" y2="0" id="Arch_Amazon-App-Stream_32_svg__a" gradientUnits="userSpaceOnUse">
      <stop stop-color="#055F4E" offset="0%" id="stop193"/>
      <stop stop-color="#56C0A7" offset="100%" id="stop195"/>
    </linearGradient>
    <linearGradient inkscape:collect="always" xlink:href="#Arch_Amazon-App-Stream_32_svg__a" id="linearGradient5762" gradientUnits="userSpaceOnUse" x1="0" y1="40" x2="40" y2="0" gradientTransform="translate(-0.59656004,82.947658)"/>
    <linearGradient x1="0" y1="40" x2="40" y2="0" id="Arch_Amazon-EC2-Auto-Scaling_32_svg__a" gradientUnits="userSpaceOnUse">
      <stop stop-color="#C8511B" offset="0%" id="stop13019"/>
      <stop stop-color="#F90" offset="100%" id="stop13021"/>
    </linearGradient>
    <linearGradient x1="0" y1="40" x2="40" y2="0" id="Arch_Amazon-EventBridge_32_svg__a" gradientUnits="userSpaceOnUse">
      <stop stop-color="#B0084D" offset="0%" id="stop13042"/>
      <stop stop-color="#FF4F8B" offset="100%" id="stop13044"/>
    </linearGradient>
    <linearGradient x1="0" y1="40" x2="40" y2="0" id="Arch_Amazon-DynamoDB_32_svg__a" gradientUnits="userSpaceOnUse">
      <stop stop-color="#2E27AD" offset="0%" id="stop13065"/>
      <stop stop-color="#527FFF" offset="100%" id="stop13067"/>
    </linearGradient>
    <linearGradient x1="0" y1="40" x2="40" y2="0" id="Arch_AWS-Simple-Notification-Service_32_svg__a" gradientUnits="userSpaceOnUse">
      <stop stop-color="#B0084D" offset="0%" id="stop13111"/>
      <stop stop-color="#FF4F8B" offset="100%" id="stop13113"/>
    </linearGradient>
    <linearGradient x1="0" y1="40" x2="40" y2="0" id="Arch_Elastic-Load-Balancing_32_svg__a" gradientUnits="userSpaceOnUse">
      <stop stop-color="#4D27A8" offset="0%" id="stop13134"/>
      <stop stop-color="#A166FF" offset="100%" id="stop13136"/>
    </linearGradient>
    <linearGradient x1="0" y1="40" x2="40" y2="0" id="Arch_Amazon-Elastic-Block-Store_32_svg__a" gradientUnits="userSpaceOnUse">
      <stop stop-color="#1B660F" offset="0%" id="stop13180"/>
      <stop stop-color="#6CAE3E" offset="100%" id="stop13182"/>
    </linearGradient>
    <linearGradient inkscape:collect="always" xlink:href="#Arch_Amazon-App-Stream_32_svg__a" id="linearGradient42179" gradientUnits="userSpaceOnUse" gradientTransform="translate(-0.59656004,82.947658)" x1="0" y1="40" x2="40" y2="0"/>
    <linearGradient inkscape:collect="always" xlink:href="#Arch_Amazon-EventBridge_32_svg__a" id="linearGradient72931" gradientUnits="userSpaceOnUse" x1="0" y1="40" x2="40" y2="0"/>
    <linearGradient inkscape:collect="always" xlink:href="#Arch_Amazon-Elastic-Block-Store_32_svg__a" id="linearGradient104937" gradientUnits="userSpaceOnUse" x1="0" y1="40" x2="40" y2="0"/>
    <linearGradient inkscape:collect="always" xlink:href="#Arch_Amazon-EventBridge_32_svg__a" id="linearGradient124250" gradientUnits="userSpaceOnUse" x1="0" y1="40" x2="40" y2="0"/>
    <linearGradient inkscape:collect="always" xlink:href="#Arch_Amazon-Elastic-Block-Store_32_svg__a" id="linearGradient124252" gradientUnits="userSpaceOnUse" x1="0" y1="40" x2="40" y2="0"/>
    <linearGradient x1="0" y1="40" x2="40" y2="0" id="Arch_AWS-Lambda_32_svg__a-0" gradientUnits="userSpaceOnUse">
      <stop stop-color="#C8511B" offset="0%" id="stop197973"/>
      <stop stop-color="#F90" offset="100%" id="stop197975"/>
    </linearGradient>
    <linearGradient inkscape:collect="always" xlink:href="#Arch_AWS-Lambda_32_svg__a-0" id="linearGradient198795" gradientUnits="userSpaceOnUse" x1="0" y1="40" x2="40" y2="0"/>
    <linearGradient inkscape:collect="always" xlink:href="#Arch_Amazon-EC2-Auto-Scaling_32_svg__a" id="linearGradient240131" gradientUnits="userSpaceOnUse" x1="0" y1="40" x2="40" y2="0"/>
    <linearGradient inkscape:collect="always" xlink:href="#Arch_Amazon-EventBridge_32_svg__a" id="linearGradient248877" gradientUnits="userSpaceOnUse" x1="0" y1="40" x2="40" y2="0"/>
    <linearGradient inkscape:collect="always" xlink:href="#linearGradient251843" id="linearGradient251839" x1="287.19391" y1="79.375" x2="290.90103" y2="79.375" gradientUnits="userSpaceOnUse"/>
    <linearGradient inkscape:collect="always" xlink:href="#linearGradient251843" id="linearGradient251847" gradientUnits="userSpaceOnUse" x1="52.56237" y1="127" x2="138.49973" y2="127"/>
    <linearGradient inkscape:collect="always" xlink:href="#Arch_AWS-Simple-Notification-Service_32_svg__a" id="linearGradient256161" gradientUnits="userSpaceOnUse" x1="0" y1="40" x2="40" y2="0"/>
    <linearGradient inkscape:collect="always" xlink:href="#Arch_Amazon-EC2-Auto-Scaling_32_svg__a" id="linearGradient256574" gradientUnits="userSpaceOnUse" x1="0" y1="40" x2="40" y2="0"/>
    <linearGradient inkscape:collect="always" xlink:href="#Arch_Amazon-EventBridge_32_svg__a" id="linearGradient257442" gradientUnits="userSpaceOnUse" x1="0" y1="40" x2="40" y2="0"/>
    <linearGradient inkscape:collect="always" xlink:href="#linearGradient251843" id="linearGradient257444" gradientUnits="userSpaceOnUse" x1="287.19391" y1="79.375" x2="290.90103" y2="79.375" gradientTransform="translate(6.2507739)"/>
    <linearGradient inkscape:collect="always" xlink:href="#linearGradient251843" id="linearGradient2578" x1="107.97829" y1="123.17372" x2="295.52917" y2="123.17372" gradientUnits="userSpaceOnUse"/>
    <linearGradient inkscape:collect="always" xlink:href="#linearGradient251843" id="linearGradient3510" x1="199.50832" y1="161.72446" x2="203.21542" y2="161.72446" gradientUnits="userSpaceOnUse"/>
    <linearGradient inkscape:collect="always" xlink:href="#linearGradient251843" id="linearGradient3777" x1="214.77148" y1="162.02034" x2="279.04114" y2="162.02034" gradientUnits="userSpaceOnUse"/>
    <linearGradient inkscape:collect="always" xlink:href="#linearGradient3775" id="linearGradient10768" x1="121.28051" y1="195.26253" x2="186.63417" y2="195.26253" gradientUnits="userSpaceOnUse" gradientTransform="translate(-0.48454263)"/>
    <linearGradient inkscape:collect="always" xlink:href="#Arch_Amazon-EC2-Auto-Scaling_32_svg__a" id="linearGradient12673" gradientUnits="userSpaceOnUse" x1="0" y1="40" x2="40" y2="0"/>
    <linearGradient inkscape:collect="always" xlink:href="#linearGradient10766" id="linearGradient42566" x1="30.88114" y1="28.250118" x2="284.19095" y2="28.250118" gradientUnits="userSpaceOnUse"/>
    <linearGradient inkscape:collect="always" xlink:href="#linearGradient10766" id="linearGradient43213" x1="5.1197085" y1="126.87533" x2="95.620522" y2="126.87533" gradientUnits="userSpaceOnUse"/>
    <linearGradient inkscape:collect="always" xlink:href="#Arch_Amazon-EventBridge_32_svg__a" id="linearGradient49719" gradientUnits="userSpaceOnUse" x1="0" y1="40" x2="40" y2="0"/>
    <linearGradient inkscape:collect="always" xlink:href="#linearGradient10766" id="linearGradient50877" x1="41.828209" y1="116.24811" x2="63.362431" y2="116.24811" gradientUnits="userSpaceOnUse"/>
  </defs>
  <g inkscape:groupmode="layer" id="layer13" inkscape:label="eventlog" style="display:inline">
    <g id="g42050" transform="matrix(0.26458333,0,0,0.26458333,172.64126,55.658304)" style="display:inline;fill:none;fill-rule:evenodd">
      <g fill="none" fill-rule="evenodd" id="g13076" transform="translate(444.0132,502.00095)">
        <path d="M 0,0 H 40 V 40 H 0 Z" fill="url(#Arch_Amazon-DynamoDB_32_svg__a)" id="path13072" style="fill:url(#Arch_Amazon-DynamoDB_32_svg__a)"/>
        <path d="m 26.066,31.019 v -2.866 c -1.526,1.308 -4.694,2.17 -8.538,2.17 -3.847,0 -7.015,-0.863 -8.541,-2.172 v 2.863 c 0,1.411 3.508,2.984 8.54,2.984 5.027,0 8.531,-1.57 8.54,-2.98 z m 0.001,-8.175 0.987,-0.006 v 0.006 c 0,0.625 -0.312,1.207 -0.906,1.742 0.726,0.653 0.906,1.294 0.906,1.75 l -10e-4,0.008 v 4.67 C 27.053,33.286 22.959,35 17.528,35 12.125,35 8.048,33.304 8.005,31.049 8.005,31.039 8,31.033 8,31.024 v -4.69 l 0.002,-0.008 c 0.002,-0.454 0.183,-1.09 0.9,-1.737 C 8.186,23.939 8.005,23.305 8.001,22.855 L 8,22.85 v -4.69 l 0.002,-0.007 c 0.002,-0.455 0.184,-1.09 0.902,-1.738 -0.718,-0.65 -0.9,-1.283 -0.903,-1.734 L 8,14.675 V 9.985 C 8,9.979 8.003,9.976 8.003,9.971 8.023,7.706 12.109,6 17.528,6 c 2.608,0 5.114,0.43 6.874,1.177 l -0.381,0.925 c -1.643,-0.7 -4.01,-1.1 -6.493,-1.1 -5.033,0 -8.54,1.573 -8.54,2.984 0,1.413 3.507,2.986 8.54,2.986 0.138,0.001 0.268,0 0.403,-0.006 l 0.04,1 c -0.148,0.008 -0.296,0.008 -0.443,0.008 -3.847,0 -7.015,-0.863 -8.541,-2.172 v 2.874 c 0.006,0.545 0.543,1.02 0.992,1.322 1.348,0.89 3.763,1.496 6.454,1.622 l -0.047,1 c -2.723,-0.126 -5.11,-0.712 -6.645,-1.608 -0.384,0.295 -0.753,0.692 -0.753,1.15 0,1.411 3.507,2.984 8.54,2.984 0.496,0 0.98,-0.017 1.453,-0.05 l 0.072,0.998 c -0.496,0.036 -1.006,0.054 -1.525,0.054 -3.847,0 -7.015,-0.862 -8.541,-2.171 v 2.861 c 0.006,0.558 0.542,1.033 0.992,1.334 1.54,1.018 4.434,1.65 7.549,1.65 h 0.219 v 1.003 h -0.22 c -3.165,0 -6.029,-0.612 -7.785,-1.641 -0.384,0.295 -0.754,0.693 -0.754,1.152 0,1.411 3.507,2.984 8.54,2.984 5.024,0 8.527,-1.567 8.538,-2.978 v -0.009 c 0,-0.455 -0.367,-0.85 -0.749,-1.145 -0.243,0.143 -0.505,0.28 -0.801,0.406 l -0.382,-0.922 c 0.362,-0.156 0.678,-0.323 0.939,-0.5 0.453,-0.306 0.994,-0.786 0.994,-1.328 z m 5.288,-8.355 h -3.283 a 0.491,0.491 0 0 1 -0.4,-0.21 0.506,0.506 0 0 1 -0.067,-0.452 L 29.06,9.479 h -6.528 l -3.121,6.012 h 3.169 a 0.49,0.49 0 0 1 0.392,0.197 0.505,0.505 0 0 1 0.084,0.436 l -2.718,10.108 z m 1.51,-0.155 -13.16,14.026 a 0.493,0.493 0 0 1 -0.6,0.09 0.505,0.505 0 0 1 -0.233,-0.568 l 3.063,-11.39 H 18.593 A 0.492,0.492 0 0 1 18.17,16.25 0.505,0.505 0 0 1 18.156,15.758 l 3.642,-7.013 a 0.493,0.493 0 0 1 0.436,-0.267 h 7.515 c 0.16,0 0.309,0.078 0.401,0.209 a 0.51,0.51 0 0 1 0.066,0.453 l -1.455,4.347 h 3.746 c 0.198,0 0.376,0.12 0.454,0.304 a 0.51,0.51 0 0 1 -0.096,0.543 z M 9.728,31.04 c 0.571,0.332 1.27,0.626 2.079,0.87 l 0.281,-0.96 c -0.734,-0.222 -1.363,-0.484 -1.869,-0.779 z m 2.079,-7.232 0.281,-0.96 c -0.732,-0.221 -1.36,-0.484 -1.869,-0.78 l -0.491,0.87 c 0.573,0.334 1.273,0.627 2.079,0.87 z m -2.08,-8.974 0.492,-0.868 c 0.505,0.294 1.135,0.558 1.87,0.78 l -0.282,0.96 c -0.81,-0.244 -1.508,-0.538 -2.08,-0.872 z" fill="#ffffff" id="path13074"/>
      </g>
      <text xml:space="preserve" style="font-style:normal;font-weight:normal;font-size:24px;line-height:1.25;font-family:sans-serif;text-align:center;text-anchor:middle;fill:#000000;fill-opacity:1;stroke:none" x="464.01321" y="572.28278" id="text41985"><tspan sodipodi:role="line" id="tspan41983" x="464.01321" y="572.28278">event log</tspan></text>
    </g>
    <path style="display:inline;fill:none;stroke:#000000;stroke-width:0.365;stroke-linecap:butt;stroke-linejoin:miter;stroke-miterlimit:4;stroke-dasharray:none;stroke-opacity:1;marker-end:url(#Arrow1Lend)" d="m 295.29825,138.91342 v 44.91347" id="path257924" sodipodi:nodetypes="cc"/>
  </g>
  </svg>