<!-- Created with Inkscape (http://www.inkscape.org/) --><svg xmlns:inkscape="http://www.inkscape.org/namespaces/inkscape" xmlns:sodipodi="http://sodipodi.sourceforge.net/DTD/sodipodi-0.dtd" xmlns:xlink="http://www.w3.org/1999/xlink" xmlns="http://www.w3.org/2000/svg" xmlns:svg="http://www.w3.org/2000/svg" width="1200" height="900" viewBox="0 0 317.5 238.125" version="1.1" id="svg5" inkscape:version="1.1.2 (0a00cf5339, 2022-02-04)" sodipodi:docname="diagramy.tar" inkscape:export-filename="/home/kuba/bmw/4developers-wroclaw/img/timeout.png" inkscape:export-xdpi="300" inkscape:export-ydpi="300">
  <sodipodi:namedview id="namedview7" pagecolor="#ffffff" bordercolor="#666666" borderopacity="1.0" inkscape:pageshadow="2" inkscape:pageopacity="0.0" inkscape:pagecheckerboard="0" inkscape:document-units="mm" showgrid="true" showguides="false" inkscape:guide-bbox="true" inkscape:zoom="0.5020458" inkscape:cx="-42.824778" inkscape:cy="727.0253" inkscape:window-width="1920" inkscape:window-height="1043" inkscape:window-x="1920" inkscape:window-y="0" inkscape:window-maximized="1" inkscape:current-layer="layer3" width="1000px" units="px" inkscape:snap-object-midpoints="false" inkscape:snap-others="true" inkscape:snap-nodes="false" inkscape:snap-page="false" inkscape:snap-global="true" inkscape:snap-bbox="true" inkscape:snap-bbox-midpoints="true" inkscape:snap-center="true">
    <inkscape:grid type="xygrid" id="grid163600" spacingx="7.9375" spacingy="7.9375" dotted="false" empspacing="4"/>
  </sodipodi:namedview>
  <defs id="defs2">
    <linearGradient id="linearGradient50875" inkscape:swatch="solid">
      <stop style="stop-color:#000000;stop-opacity:1;" offset="0" id="stop50873"/>
    </linearGradient>
    <linearGradient id="linearGradient46069" inkscape:swatch="solid">
      <stop style="stop-color:#000000;stop-opacity:1;" offset="0" id="stop46067"/>
    </linearGradient>
    <linearGradient id="linearGradient43211" inkscape:swatch="solid">
      <stop style="stop-color:#000000;stop-opacity:1;" offset="0" id="stop43209"/>
    </linearGradient>
    <marker style="overflow:visible;" id="marker42569" refX="0.0" refY="0.0" orient="auto" inkscape:stockid="Arrow1Lend" inkscape:isstock="true">
      <path transform="scale(0.8) rotate(180) translate(12.5,0)" style="fill-rule:evenodd;fill:context-stroke;stroke:context-stroke;stroke-width:1.0pt;" d="M 0.0,0.0 L 5.0,-5.0 L -12.5,0.0 L 5.0,5.0 L 0.0,0.0 z " id="path1688"/>
    </marker>
    <linearGradient id="linearGradient42564" inkscape:swatch="solid">
      <stop style="stop-color:#000000;stop-opacity:1;" offset="0" id="stop42562"/>
    </linearGradient>
    <linearGradient id="linearGradient41770" inkscape:swatch="solid">
      <stop style="stop-color:#000000;stop-opacity:1;" offset="0" id="stop41768"/>
    </linearGradient>
    <linearGradient id="linearGradient10766" inkscape:swatch="solid">
      <stop style="stop-color:#d72b6b;stop-opacity:1;" offset="0" id="stop10764"/>
    </linearGradient>
    <linearGradient id="linearGradient3775" inkscape:swatch="solid">
      <stop style="stop-color:#000000;stop-opacity:1;" offset="0" id="stop3773"/>
    </linearGradient>
    <linearGradient id="linearGradient3508" inkscape:swatch="solid">
      <stop style="stop-color:#000000;stop-opacity:1;" offset="0" id="stop3506"/>
    </linearGradient>
    <linearGradient id="linearGradient2576" inkscape:swatch="solid">
      <stop style="stop-color:#000000;stop-opacity:1;" offset="0" id="stop2574"/>
    </linearGradient>
    <linearGradient id="linearGradient1681" inkscape:swatch="solid">
      <stop style="stop-color:#000000;stop-opacity:1;" offset="0" id="stop1679"/>
    </linearGradient>
    <linearGradient id="linearGradient258279" inkscape:swatch="solid">
      <stop style="stop-color:#000000;stop-opacity:1;" offset="0" id="stop258277"/>
    </linearGradient>
    <linearGradient id="linearGradient251843" inkscape:swatch="solid">
      <stop style="stop-color:#d72b6b;stop-opacity:1;" offset="0" id="stop251841"/>
    </linearGradient>
    <linearGradient id="linearGradient251837" inkscape:swatch="solid">
      <stop style="stop-color:#000000;stop-opacity:1;" offset="0" id="stop251835"/>
    </linearGradient>
    <marker style="overflow:visible" id="Arrow1Lend" refX="0" refY="0" orient="auto" inkscape:stockid="Arrow1Lend" inkscape:isstock="true">
      <path transform="matrix(-0.8,0,0,-0.8,-10,0)" style="fill:context-stroke;fill-rule:evenodd;stroke:context-stroke;stroke-width:1pt" d="M 0,0 5,-5 -12.5,0 5,5 Z" id="path124459"/>
    </marker>
    <linearGradient x1="0" y1="40" x2="40" y2="0" id="Arch_Amazon-App-Stream_32_svg__a" gradientUnits="userSpaceOnUse">
      <stop stop-color="#055F4E" offset="0%" id="stop193"/>
      <stop stop-color="#56C0A7" offset="100%" id="stop195"/>
    </linearGradient>
    <linearGradient inkscape:collect="always" xlink:href="#Arch_Amazon-App-Stream_32_svg__a" id="linearGradient5762" gradientUnits="userSpaceOnUse" x1="0" y1="40" x2="40" y2="0" gradientTransform="translate(-0.59656004,82.947658)"/>
    <linearGradient x1="0" y1="40" x2="40" y2="0" id="Arch_Amazon-EC2-Auto-Scaling_32_svg__a" gradientUnits="userSpaceOnUse">
      <stop stop-color="#C8511B" offset="0%" id="stop13019"/>
      <stop stop-color="#F90" offset="100%" id="stop13021"/>
    </linearGradient>
    <linearGradient x1="0" y1="40" x2="40" y2="0" id="Arch_Amazon-EventBridge_32_svg__a" gradientUnits="userSpaceOnUse">
      <stop stop-color="#B0084D" offset="0%" id="stop13042"/>
      <stop stop-color="#FF4F8B" offset="100%" id="stop13044"/>
    </linearGradient>
    <linearGradient x1="0" y1="40" x2="40" y2="0" id="Arch_Amazon-DynamoDB_32_svg__a" gradientUnits="userSpaceOnUse">
      <stop stop-color="#2E27AD" offset="0%" id="stop13065"/>
      <stop stop-color="#527FFF" offset="100%" id="stop13067"/>
    </linearGradient>
    <linearGradient x1="0" y1="40" x2="40" y2="0" id="Arch_AWS-Simple-Notification-Service_32_svg__a" gradientUnits="userSpaceOnUse">
      <stop stop-color="#B0084D" offset="0%" id="stop13111"/>
      <stop stop-color="#FF4F8B" offset="100%" id="stop13113"/>
    </linearGradient>
    <linearGradient x1="0" y1="40" x2="40" y2="0" id="Arch_Elastic-Load-Balancing_32_svg__a" gradientUnits="userSpaceOnUse">
      <stop stop-color="#4D27A8" offset="0%" id="stop13134"/>
      <stop stop-color="#A166FF" offset="100%" id="stop13136"/>
    </linearGradient>
    <linearGradient x1="0" y1="40" x2="40" y2="0" id="Arch_Amazon-Elastic-Block-Store_32_svg__a" gradientUnits="userSpaceOnUse">
      <stop stop-color="#1B660F" offset="0%" id="stop13180"/>
      <stop stop-color="#6CAE3E" offset="100%" id="stop13182"/>
    </linearGradient>
    <linearGradient inkscape:collect="always" xlink:href="#Arch_Amazon-App-Stream_32_svg__a" id="linearGradient42179" gradientUnits="userSpaceOnUse" gradientTransform="translate(-0.59656004,82.947658)" x1="0" y1="40" x2="40" y2="0"/>
    <linearGradient inkscape:collect="always" xlink:href="#Arch_Amazon-EventBridge_32_svg__a" id="linearGradient72931" gradientUnits="userSpaceOnUse" x1="0" y1="40" x2="40" y2="0"/>
    <linearGradient inkscape:collect="always" xlink:href="#Arch_Amazon-Elastic-Block-Store_32_svg__a" id="linearGradient104937" gradientUnits="userSpaceOnUse" x1="0" y1="40" x2="40" y2="0"/>
    <linearGradient inkscape:collect="always" xlink:href="#Arch_Amazon-EventBridge_32_svg__a" id="linearGradient124250" gradientUnits="userSpaceOnUse" x1="0" y1="40" x2="40" y2="0"/>
    <linearGradient inkscape:collect="always" xlink:href="#Arch_Amazon-Elastic-Block-Store_32_svg__a" id="linearGradient124252" gradientUnits="userSpaceOnUse" x1="0" y1="40" x2="40" y2="0"/>
    <linearGradient x1="0" y1="40" x2="40" y2="0" id="Arch_AWS-Lambda_32_svg__a-0" gradientUnits="userSpaceOnUse">
      <stop stop-color="#C8511B" offset="0%" id="stop197973"/>
      <stop stop-color="#F90" offset="100%" id="stop197975"/>
    </linearGradient>
    <linearGradient inkscape:collect="always" xlink:href="#Arch_AWS-Lambda_32_svg__a-0" id="linearGradient198795" gradientUnits="userSpaceOnUse" x1="0" y1="40" x2="40" y2="0"/>
    <linearGradient inkscape:collect="always" xlink:href="#Arch_Amazon-EC2-Auto-Scaling_32_svg__a" id="linearGradient240131" gradientUnits="userSpaceOnUse" x1="0" y1="40" x2="40" y2="0"/>
    <linearGradient inkscape:collect="always" xlink:href="#Arch_Amazon-EventBridge_32_svg__a" id="linearGradient248877" gradientUnits="userSpaceOnUse" x1="0" y1="40" x2="40" y2="0"/>
    <linearGradient inkscape:collect="always" xlink:href="#linearGradient251843" id="linearGradient251839" x1="287.19391" y1="79.375" x2="290.90103" y2="79.375" gradientUnits="userSpaceOnUse"/>
    <linearGradient inkscape:collect="always" xlink:href="#linearGradient251843" id="linearGradient251847" gradientUnits="userSpaceOnUse" x1="52.56237" y1="127" x2="138.49973" y2="127"/>
    <linearGradient inkscape:collect="always" xlink:href="#Arch_AWS-Simple-Notification-Service_32_svg__a" id="linearGradient256161" gradientUnits="userSpaceOnUse" x1="0" y1="40" x2="40" y2="0"/>
    <linearGradient inkscape:collect="always" xlink:href="#Arch_Amazon-EC2-Auto-Scaling_32_svg__a" id="linearGradient256574" gradientUnits="userSpaceOnUse" x1="0" y1="40" x2="40" y2="0"/>
    <linearGradient inkscape:collect="always" xlink:href="#Arch_Amazon-EventBridge_32_svg__a" id="linearGradient257442" gradientUnits="userSpaceOnUse" x1="0" y1="40" x2="40" y2="0"/>
    <linearGradient inkscape:collect="always" xlink:href="#linearGradient251843" id="linearGradient257444" gradientUnits="userSpaceOnUse" x1="287.19391" y1="79.375" x2="290.90103" y2="79.375" gradientTransform="translate(6.2507739)"/>
    <linearGradient inkscape:collect="always" xlink:href="#linearGradient251843" id="linearGradient2578" x1="107.97829" y1="123.17372" x2="295.52917" y2="123.17372" gradientUnits="userSpaceOnUse"/>
    <linearGradient inkscape:collect="always" xlink:href="#linearGradient251843" id="linearGradient3510" x1="199.50832" y1="161.72446" x2="203.21542" y2="161.72446" gradientUnits="userSpaceOnUse"/>
    <linearGradient inkscape:collect="always" xlink:href="#linearGradient251843" id="linearGradient3777" x1="214.77148" y1="162.02034" x2="279.04114" y2="162.02034" gradientUnits="userSpaceOnUse"/>
    <linearGradient inkscape:collect="always" xlink:href="#linearGradient3775" id="linearGradient10768" x1="121.28051" y1="195.26253" x2="186.63417" y2="195.26253" gradientUnits="userSpaceOnUse" gradientTransform="translate(-0.48454263)"/>
    <linearGradient inkscape:collect="always" xlink:href="#Arch_Amazon-EC2-Auto-Scaling_32_svg__a" id="linearGradient12673" gradientUnits="userSpaceOnUse" x1="0" y1="40" x2="40" y2="0"/>
    <linearGradient inkscape:collect="always" xlink:href="#linearGradient10766" id="linearGradient42566" x1="30.88114" y1="28.250118" x2="284.19095" y2="28.250118" gradientUnits="userSpaceOnUse"/>
    <linearGradient inkscape:collect="always" xlink:href="#linearGradient10766" id="linearGradient43213" x1="5.1197085" y1="126.87533" x2="95.620522" y2="126.87533" gradientUnits="userSpaceOnUse"/>
    <linearGradient inkscape:collect="always" xlink:href="#Arch_Amazon-EventBridge_32_svg__a" id="linearGradient49719" gradientUnits="userSpaceOnUse" x1="0" y1="40" x2="40" y2="0"/>
    <linearGradient inkscape:collect="always" xlink:href="#linearGradient10766" id="linearGradient50877" x1="41.828209" y1="116.24811" x2="63.362431" y2="116.24811" gradientUnits="userSpaceOnUse"/>
  </defs>
  <g inkscape:groupmode="layer" id="layer11" inkscape:label="event bridge" style="display:inline">
    <g id="g248875" transform="matrix(0.26458333,0,0,0.26458333,203.38658,-108.75781)" style="display:inline;fill:none;fill-rule:evenodd">
      <g fill="none" fill-rule="evenodd" id="g248869" transform="translate(303.73427,502.00095)">
        <path d="M 0,0 H 40 V 40 H 0 Z" fill="url(#Arch_Amazon-EventBridge_32_svg__a)" id="path248865" style="fill:url(#linearGradient248877)"/>
        <path d="m 11.056,28.594 a 2.09,2.09 0 0 1 -2.08,-2.096 2.09,2.09 0 0 1 2.08,-2.095 c 1.146,0 2.08,0.94 2.08,2.095 a 2.09,2.09 0 0 1 -2.08,2.096 z m 1.857,0.363 a 3.093,3.093 0 0 0 1.223,-2.459 c 0,-1.711 -1.382,-3.103 -3.08,-3.103 -0.42,0 -0.817,0.086 -1.181,0.24 L 8.076,20.496 10.438,16.374 9.573,15.87 7.067,20.245 a 0.504,0.504 0 0 0 0,0.503 l 1.966,3.43 a 3.09,3.09 0 0 0 -1.056,2.32 c 0,1.712 1.38,3.104 3.079,3.104 0.342,0 0.665,-0.07 0.973,-0.174 l 1.531,2.844 A 0.5,0.5 0 0 0 14,32.535 h 5.5 v -1.008 h -5.203 l -1.385,-2.57 z M 29.944,16.56 a 2.09,2.09 0 0 1 -2.08,-2.096 2.09,2.09 0 0 1 2.08,-2.096 2.09,2.09 0 0 1 2.078,2.096 2.09,2.09 0 0 1 -2.079,2.096 z m 2.023,0.224 a 3.095,3.095 0 0 0 1.055,-2.32 c 0,-1.711 -1.38,-3.104 -3.079,-3.104 -0.34,0 -0.662,0.07 -0.97,0.173 L 27.442,8.62 A 0.497,0.497 0 0 0 27,8.351 H 21.5 V 9.36 h 5.2 l 1.39,2.644 a 3.1,3.1 0 0 0 -1.226,2.462 c 0,1.71 1.381,3.103 3.08,3.103 0.42,0 0.818,-0.086 1.18,-0.24 l 1.799,3.14 -2.362,4.12 0.866,0.504 2.505,-4.373 a 0.504,0.504 0 0 0 0,-0.504 l -1.965,-3.43 z m -4.573,16.207 a 2.09,2.09 0 0 1 -2.08,-2.095 2.09,2.09 0 0 1 2.08,-2.095 2.09,2.09 0 0 1 2.079,2.095 2.09,2.09 0 0 1 -2.08,2.095 z m -9.19,-8.491 -2.293,-4.002 2.292,-4 h 4.584 l 2.294,4 -2.294,4.002 H 18.203 Z M 13.636,12.197 a 2.09,2.09 0 0 1 -2.08,-2.095 2.09,2.09 0 0 1 2.08,-2.095 c 1.146,0 2.08,0.94 2.08,2.095 a 2.09,2.09 0 0 1 -2.08,2.095 z m 13.758,15.596 c -0.625,0 -1.206,0.191 -1.692,0.515 l -2.07,-3.267 2.46,-4.29 a 0.504,0.504 0 0 0 0,-0.504 L 23.51,15.742 A 0.498,0.498 0 0 0 23.077,15.49 h -4.752 l -2.279,-3.481 a 3.088,3.088 0 0 0 0.67,-1.907 c 0,-1.711 -1.382,-3.103 -3.08,-3.103 -1.699,0 -3.08,1.392 -3.08,3.103 0,1.712 1.381,3.103 3.08,3.103 a 3.04,3.04 0 0 0 1.668,-0.502 l 2.09,3.194 -2.492,4.35 a 0.504,0.504 0 0 0 0,0.503 l 2.58,4.506 a 0.497,0.497 0 0 0 0.433,0.252 h 4.828 l 2.218,3.505 A 3.092,3.092 0 0 0 27.395,34 c 1.698,0 3.079,-1.393 3.079,-3.103 0,-1.712 -1.381,-3.103 -3.08,-3.103 z" fill="#ffffff" id="path248867"/>
      </g>
      <text xml:space="preserve" style="font-style:normal;font-weight:normal;font-size:24px;line-height:1.25;font-family:sans-serif;text-align:center;text-anchor:middle;fill:#000000;fill-opacity:1;stroke:none" x="323.73428" y="572.28278" id="text248873"><tspan sodipodi:role="line" id="tspan248871" x="323.73428" y="572.28278">event bridge</tspan></text>
    </g>
    <path style="display:inline;fill:#000000;stroke:#000000;stroke-width:0.365;stroke-linecap:butt;stroke-linejoin:miter;stroke-miterlimit:4;stroke-dasharray:none;stroke-opacity:1;marker-end:url(#Arrow1Lend)" d="m 173.65964,31.75 h 90.85044" id="path249136" sodipodi:nodetypes="cc"/>
  </g>
  </svg>