<!-- Created with Inkscape (http://www.inkscape.org/) --><svg xmlns:inkscape="http://www.inkscape.org/namespaces/inkscape" xmlns:sodipodi="http://sodipodi.sourceforge.net/DTD/sodipodi-0.dtd" xmlns:xlink="http://www.w3.org/1999/xlink" xmlns="http://www.w3.org/2000/svg" xmlns:svg="http://www.w3.org/2000/svg" width="1200" height="900" viewBox="0 0 317.5 238.125" version="1.1" id="svg5" inkscape:version="1.1.2 (0a00cf5339, 2022-02-04)" sodipodi:docname="diagramy.tar" inkscape:export-filename="/home/kuba/bmw/4developers-wroclaw/img/timeout.png" inkscape:export-xdpi="300" inkscape:export-ydpi="300">
  <sodipodi:namedview id="namedview7" pagecolor="#ffffff" bordercolor="#666666" borderopacity="1.0" inkscape:pageshadow="2" inkscape:pageopacity="0.0" inkscape:pagecheckerboard="0" inkscape:document-units="mm" showgrid="true" showguides="false" inkscape:guide-bbox="true" inkscape:zoom="0.5020458" inkscape:cx="542.77916" inkscape:cy="408.32928" inkscape:window-width="1920" inkscape:window-height="1043" inkscape:window-x="1920" inkscape:window-y="0" inkscape:window-maximized="1" inkscape:current-layer="layer10" width="1000px" units="px" inkscape:snap-object-midpoints="false" inkscape:snap-others="true" inkscape:snap-nodes="false" inkscape:snap-page="false" inkscape:snap-global="true" inkscape:snap-bbox="true" inkscape:snap-bbox-midpoints="true" inkscape:snap-center="true">
    <inkscape:grid type="xygrid" id="grid163600" spacingx="7.9375" spacingy="7.9375" dotted="false" empspacing="4"/>
  </sodipodi:namedview>
  <defs id="defs2">
    <linearGradient id="linearGradient50875" inkscape:swatch="solid">
      <stop style="stop-color:#000000;stop-opacity:1;" offset="0" id="stop50873"/>
    </linearGradient>
    <linearGradient id="linearGradient46069" inkscape:swatch="solid">
      <stop style="stop-color:#000000;stop-opacity:1;" offset="0" id="stop46067"/>
    </linearGradient>
    <linearGradient id="linearGradient43211" inkscape:swatch="solid">
      <stop style="stop-color:#000000;stop-opacity:1;" offset="0" id="stop43209"/>
    </linearGradient>
    <marker style="overflow:visible;" id="marker42569" refX="0.0" refY="0.0" orient="auto" inkscape:stockid="Arrow1Lend" inkscape:isstock="true">
      <path transform="scale(0.8) rotate(180) translate(12.5,0)" style="fill-rule:evenodd;fill:context-stroke;stroke:context-stroke;stroke-width:1.0pt;" d="M 0.0,0.0 L 5.0,-5.0 L -12.5,0.0 L 5.0,5.0 L 0.0,0.0 z " id="path1688"/>
    </marker>
    <linearGradient id="linearGradient42564" inkscape:swatch="solid">
      <stop style="stop-color:#000000;stop-opacity:1;" offset="0" id="stop42562"/>
    </linearGradient>
    <linearGradient id="linearGradient41770" inkscape:swatch="solid">
      <stop style="stop-color:#000000;stop-opacity:1;" offset="0" id="stop41768"/>
    </linearGradient>
    <linearGradient id="linearGradient10766" inkscape:swatch="solid">
      <stop style="stop-color:#d72b6b;stop-opacity:1;" offset="0" id="stop10764"/>
    </linearGradient>
    <linearGradient id="linearGradient3775" inkscape:swatch="solid">
      <stop style="stop-color:#000000;stop-opacity:1;" offset="0" id="stop3773"/>
    </linearGradient>
    <linearGradient id="linearGradient3508" inkscape:swatch="solid">
      <stop style="stop-color:#000000;stop-opacity:1;" offset="0" id="stop3506"/>
    </linearGradient>
    <linearGradient id="linearGradient2576" inkscape:swatch="solid">
      <stop style="stop-color:#000000;stop-opacity:1;" offset="0" id="stop2574"/>
    </linearGradient>
    <linearGradient id="linearGradient1681" inkscape:swatch="solid">
      <stop style="stop-color:#000000;stop-opacity:1;" offset="0" id="stop1679"/>
    </linearGradient>
    <linearGradient id="linearGradient258279" inkscape:swatch="solid">
      <stop style="stop-color:#000000;stop-opacity:1;" offset="0" id="stop258277"/>
    </linearGradient>
    <linearGradient id="linearGradient251843" inkscape:swatch="solid">
      <stop style="stop-color:#d72b6b;stop-opacity:1;" offset="0" id="stop251841"/>
    </linearGradient>
    <linearGradient id="linearGradient251837" inkscape:swatch="solid">
      <stop style="stop-color:#000000;stop-opacity:1;" offset="0" id="stop251835"/>
    </linearGradient>
    <marker style="overflow:visible" id="Arrow1Lend" refX="0" refY="0" orient="auto" inkscape:stockid="Arrow1Lend" inkscape:isstock="true">
      <path transform="matrix(-0.8,0,0,-0.8,-10,0)" style="fill:context-stroke;fill-rule:evenodd;stroke:context-stroke;stroke-width:1pt" d="M 0,0 5,-5 -12.5,0 5,5 Z" id="path124459"/>
    </marker>
    <linearGradient x1="0" y1="40" x2="40" y2="0" id="Arch_Amazon-App-Stream_32_svg__a" gradientUnits="userSpaceOnUse">
      <stop stop-color="#055F4E" offset="0%" id="stop193"/>
      <stop stop-color="#56C0A7" offset="100%" id="stop195"/>
    </linearGradient>
    <linearGradient inkscape:collect="always" xlink:href="#Arch_Amazon-App-Stream_32_svg__a" id="linearGradient5762" gradientUnits="userSpaceOnUse" x1="0" y1="40" x2="40" y2="0" gradientTransform="translate(-0.59656004,82.947658)"/>
    <linearGradient x1="0" y1="40" x2="40" y2="0" id="Arch_Amazon-EC2-Auto-Scaling_32_svg__a" gradientUnits="userSpaceOnUse">
      <stop stop-color="#C8511B" offset="0%" id="stop13019"/>
      <stop stop-color="#F90" offset="100%" id="stop13021"/>
    </linearGradient>
    <linearGradient x1="0" y1="40" x2="40" y2="0" id="Arch_Amazon-EventBridge_32_svg__a" gradientUnits="userSpaceOnUse">
      <stop stop-color="#B0084D" offset="0%" id="stop13042"/>
      <stop stop-color="#FF4F8B" offset="100%" id="stop13044"/>
    </linearGradient>
    <linearGradient x1="0" y1="40" x2="40" y2="0" id="Arch_Amazon-DynamoDB_32_svg__a" gradientUnits="userSpaceOnUse">
      <stop stop-color="#2E27AD" offset="0%" id="stop13065"/>
      <stop stop-color="#527FFF" offset="100%" id="stop13067"/>
    </linearGradient>
    <linearGradient x1="0" y1="40" x2="40" y2="0" id="Arch_AWS-Simple-Notification-Service_32_svg__a" gradientUnits="userSpaceOnUse">
      <stop stop-color="#B0084D" offset="0%" id="stop13111"/>
      <stop stop-color="#FF4F8B" offset="100%" id="stop13113"/>
    </linearGradient>
    <linearGradient x1="0" y1="40" x2="40" y2="0" id="Arch_Elastic-Load-Balancing_32_svg__a" gradientUnits="userSpaceOnUse">
      <stop stop-color="#4D27A8" offset="0%" id="stop13134"/>
      <stop stop-color="#A166FF" offset="100%" id="stop13136"/>
    </linearGradient>
    <linearGradient x1="0" y1="40" x2="40" y2="0" id="Arch_Amazon-Elastic-Block-Store_32_svg__a" gradientUnits="userSpaceOnUse">
      <stop stop-color="#1B660F" offset="0%" id="stop13180"/>
      <stop stop-color="#6CAE3E" offset="100%" id="stop13182"/>
    </linearGradient>
    <linearGradient inkscape:collect="always" xlink:href="#Arch_Amazon-App-Stream_32_svg__a" id="linearGradient42179" gradientUnits="userSpaceOnUse" gradientTransform="translate(-0.59656004,82.947658)" x1="0" y1="40" x2="40" y2="0"/>
    <linearGradient inkscape:collect="always" xlink:href="#Arch_Amazon-EventBridge_32_svg__a" id="linearGradient72931" gradientUnits="userSpaceOnUse" x1="0" y1="40" x2="40" y2="0"/>
    <linearGradient inkscape:collect="always" xlink:href="#Arch_Amazon-Elastic-Block-Store_32_svg__a" id="linearGradient104937" gradientUnits="userSpaceOnUse" x1="0" y1="40" x2="40" y2="0"/>
    <linearGradient inkscape:collect="always" xlink:href="#Arch_Amazon-EventBridge_32_svg__a" id="linearGradient124250" gradientUnits="userSpaceOnUse" x1="0" y1="40" x2="40" y2="0"/>
    <linearGradient inkscape:collect="always" xlink:href="#Arch_Amazon-Elastic-Block-Store_32_svg__a" id="linearGradient124252" gradientUnits="userSpaceOnUse" x1="0" y1="40" x2="40" y2="0"/>
    <linearGradient x1="0" y1="40" x2="40" y2="0" id="Arch_AWS-Lambda_32_svg__a-0" gradientUnits="userSpaceOnUse">
      <stop stop-color="#C8511B" offset="0%" id="stop197973"/>
      <stop stop-color="#F90" offset="100%" id="stop197975"/>
    </linearGradient>
    <linearGradient inkscape:collect="always" xlink:href="#Arch_AWS-Lambda_32_svg__a-0" id="linearGradient198795" gradientUnits="userSpaceOnUse" x1="0" y1="40" x2="40" y2="0"/>
    <linearGradient inkscape:collect="always" xlink:href="#Arch_Amazon-EC2-Auto-Scaling_32_svg__a" id="linearGradient240131" gradientUnits="userSpaceOnUse" x1="0" y1="40" x2="40" y2="0"/>
    <linearGradient inkscape:collect="always" xlink:href="#Arch_Amazon-EventBridge_32_svg__a" id="linearGradient248877" gradientUnits="userSpaceOnUse" x1="0" y1="40" x2="40" y2="0"/>
    <linearGradient inkscape:collect="always" xlink:href="#linearGradient251843" id="linearGradient251839" x1="287.19391" y1="79.375" x2="290.90103" y2="79.375" gradientUnits="userSpaceOnUse"/>
    <linearGradient inkscape:collect="always" xlink:href="#linearGradient251843" id="linearGradient251847" gradientUnits="userSpaceOnUse" x1="52.56237" y1="127" x2="138.49973" y2="127"/>
    <linearGradient inkscape:collect="always" xlink:href="#Arch_AWS-Simple-Notification-Service_32_svg__a" id="linearGradient256161" gradientUnits="userSpaceOnUse" x1="0" y1="40" x2="40" y2="0"/>
    <linearGradient inkscape:collect="always" xlink:href="#Arch_Amazon-EC2-Auto-Scaling_32_svg__a" id="linearGradient256574" gradientUnits="userSpaceOnUse" x1="0" y1="40" x2="40" y2="0"/>
    <linearGradient inkscape:collect="always" xlink:href="#Arch_Amazon-EventBridge_32_svg__a" id="linearGradient257442" gradientUnits="userSpaceOnUse" x1="0" y1="40" x2="40" y2="0"/>
    <linearGradient inkscape:collect="always" xlink:href="#linearGradient251843" id="linearGradient257444" gradientUnits="userSpaceOnUse" x1="287.19391" y1="79.375" x2="290.90103" y2="79.375" gradientTransform="translate(6.2507739)"/>
    <linearGradient inkscape:collect="always" xlink:href="#linearGradient251843" id="linearGradient2578" x1="107.97829" y1="123.17372" x2="295.52917" y2="123.17372" gradientUnits="userSpaceOnUse"/>
    <linearGradient inkscape:collect="always" xlink:href="#linearGradient251843" id="linearGradient3510" x1="199.50832" y1="161.72446" x2="203.21542" y2="161.72446" gradientUnits="userSpaceOnUse"/>
    <linearGradient inkscape:collect="always" xlink:href="#linearGradient251843" id="linearGradient3777" x1="214.77148" y1="162.02034" x2="279.04114" y2="162.02034" gradientUnits="userSpaceOnUse"/>
    <linearGradient inkscape:collect="always" xlink:href="#linearGradient3775" id="linearGradient10768" x1="121.28051" y1="195.26253" x2="186.63417" y2="195.26253" gradientUnits="userSpaceOnUse" gradientTransform="translate(-0.48454263)"/>
    <linearGradient inkscape:collect="always" xlink:href="#Arch_Amazon-EC2-Auto-Scaling_32_svg__a" id="linearGradient12673" gradientUnits="userSpaceOnUse" x1="0" y1="40" x2="40" y2="0"/>
    <linearGradient inkscape:collect="always" xlink:href="#linearGradient10766" id="linearGradient42566" x1="30.88114" y1="28.250118" x2="284.19095" y2="28.250118" gradientUnits="userSpaceOnUse"/>
    <linearGradient inkscape:collect="always" xlink:href="#linearGradient10766" id="linearGradient43213" x1="5.1197085" y1="126.87533" x2="95.620522" y2="126.87533" gradientUnits="userSpaceOnUse"/>
    <linearGradient inkscape:collect="always" xlink:href="#Arch_Amazon-EventBridge_32_svg__a" id="linearGradient49719" gradientUnits="userSpaceOnUse" x1="0" y1="40" x2="40" y2="0"/>
    <linearGradient inkscape:collect="always" xlink:href="#linearGradient10766" id="linearGradient50877" x1="41.828209" y1="116.24811" x2="63.362431" y2="116.24811" gradientUnits="userSpaceOnUse"/>
  </defs>
  <g inkscape:groupmode="layer" id="layer6" inkscape:label="fleetmgmt" style="display:inline;mix-blend-mode:normal">
    <g id="g198754" transform="translate(69.347452,208.8446)" style="display:inline">
      <text xml:space="preserve" style="font-style:normal;font-weight:normal;font-size:6.35px;line-height:1.25;font-family:sans-serif;text-align:center;text-anchor:middle;fill:#000000;fill-opacity:1;fill-rule:evenodd;stroke:none;stroke-width:0.264583" x="-95.143028" y="183.87775" id="text198746"><tspan sodipodi:role="line" id="tspan198744" x="-95.143028" y="183.87775" style="stroke-width:0.264583">lambda*</tspan></text>
      <g fill="none" fill-rule="evenodd" id="g198752" transform="matrix(0.26458333,0,0,0.26458333,-100.4347,165.28234)">
        <path d="M 0,0 H 40 V 40 H 0 Z" fill="url(#Arch_AWS-Lambda_32_svg__a)" id="path198748" style="fill:url(#linearGradient198795)"/>
        <path d="M 14.386,33 H 8.27 l 6.763,-14.426 3.064,6.44 L 14.387,33 Z M 15.471,17.202 A 0.49,0.49 0 0 0 15.029,16.92 h -0.002 a 0.493,0.493 0 0 0 -0.441,0.285 l -7.538,16.08 a 0.507,0.507 0 0 0 0.028,0.482 C 7.166,33.912 7.323,34 7.491,34 h 7.206 c 0.19,0 0.363,-0.111 0.445,-0.286 l 3.944,-8.489 A 0.508,0.508 0 0 0 19.084,24.793 Z M 32.018,33 H 26.136 L 16.666,12.289 A 0.491,0.491 0 0 0 16.222,12 H 12.37 l 0.005,-5 h 7.549 l 9.424,20.71 c 0.08,0.177 0.256,0.29 0.446,0.29 h 2.224 z m 0.49,-6 h -2.4 L 20.684,6.29 A 0.492,0.492 0 0 0 20.238,6 h -8.353 a 0.496,0.496 0 0 0 -0.491,0.5 l -0.006,6 c 0,0.132 0.052,0.259 0.144,0.354 A 0.488,0.488 0 0 0 11.879,13 h 4.032 l 9.468,20.711 C 25.459,33.887 25.633,34 25.824,34 h 6.686 a 0.495,0.495 0 0 0 0.491,-0.5 v -6 c 0,-0.276 -0.219,-0.5 -0.491,-0.5 z" fill="#ffffff" id="path198750"/>
      </g>
    </g>
    <g id="g199798" transform="translate(63.500012,70.679923)">
      <g id="g48421" transform="matrix(0.26458333,0,0,0.26458333,218.76667,-87.21679)" style="display:inline;fill:none;fill-rule:evenodd">
        <g id="g48415" transform="matrix(0.91364025,0,0,0.91364025,25.44929,427.94382)">
          <path d="M -0.59656004,82.947658 H 39.40344 V 122.94766 H -0.59656004 Z" fill="url(#Arch_Amazon-App-Stream_32_svg__a)" id="path48413" style="fill:#ffffff;stroke:#000000;stroke-width:3.77953;stroke-miterlimit:4;stroke-dasharray:none;stroke-opacity:1"/>
        </g>
        <text xml:space="preserve" style="font-style:normal;font-weight:normal;font-size:24px;line-height:1.25;font-family:sans-serif;text-align:center;text-anchor:middle;fill:#000000;fill-opacity:1;stroke:none" x="43.177055" y="572.28278" id="text48419"><tspan sodipodi:role="line" id="tspan48417" x="43.177055" y="572.28278">fleet-mgmt</tspan></text>
      </g>
    </g>
    <path style="fill:none;stroke:#000000;stroke-width:0.365;stroke-linecap:butt;stroke-linejoin:miter;stroke-miterlimit:4;stroke-dasharray:none;stroke-opacity:1;marker-end:url(#Arrow1Lend)" d="M 293.6875,112.63938 V 46.819213" id="path199588" sodipodi:nodetypes="cc"/>
    <path style="fill:none;stroke:#000000;stroke-width:0.365;stroke-linecap:butt;stroke-linejoin:miter;stroke-miterlimit:4;stroke-dasharray:none;stroke-opacity:1;marker-end:url(#Arrow1Lend)" d="M 293.6875,112.63938 V 46.819213" id="path214318" sodipodi:nodetypes="cc"/>
    <g id="g42036" transform="matrix(0.26458333,0,0,0.26458333,245.14828,-109.37328)" style="display:inline;fill:none;fill-rule:evenodd">
      <g fill="none" fill-rule="evenodd" id="g13030" transform="translate(163.45534,502.00095)">
        <path d="M 0,0 H 40 V 40 H 0 Z" fill="url(#Arch_Amazon-EC2-Auto-Scaling_32_svg__a)" id="path13026" style="fill:url(#linearGradient12673)"/>
        <path d="M 24,17.962 V 16.438 A 0.505,0.505 0 0 0 23.5,15.93 h -7 c -0.275,0 -0.5,0.227 -0.5,0.508 v 7.113 c 0,0.28 0.225,0.508 0.5,0.508 h 7 c 0.275,0 0.5,-0.227 0.5,-0.508 z m 1,-3.049 h 1 V 15.93 H 24.908 C 24.964,16.09 25,16.259 25,16.438 v 1.524 h 1 v 1.016 h -1 v 2.033 h 1 v 1.016 h -1 v 1.524 c 0,0.179 -0.036,0.349 -0.092,0.508 H 26 v 1.017 h -1 v 1.016 h -1 v -1.11 a 1.462,1.462 0 0 1 -0.5,0.094 H 22 v 1.016 h -1 v -1.016 h -2 v 1.016 h -1 v -1.016 h -1.5 c -0.176,0 -0.343,-0.037 -0.5,-0.094 v 1.11 h -1 v -1.016 h -1 v -1.017 h 1.092 A 1.529,1.529 0 0 1 15,23.551 V 22.027 H 14 V 21.01 h 1 v -2.033 h -1 v -1.016 h 1 v -1.524 c 0,-0.18 0.036,-0.349 0.092,-0.508 H 14 v -1.017 h 1 v -1.016 h 1 v 1.11 c 0.157,-0.057 0.324,-0.094 0.5,-0.094 H 18 v -1.016 h 1 v 1.016 h 2 v -1.016 h 1 v 1.016 h 1.5 c 0.176,0 0.343,0.037 0.5,0.094 v -1.11 h 1 v 1.016 z m -4,16.923 v -4.728 h -1 v 4.728 L 17.881,29.307 17.119,29.967 20.5,34 23.881,29.967 23.119,29.307 21,31.837 Z M 9.176,17.841 11.665,19.994 H 6 v 1.017 h 5.665 l -2.489,2.153 0.648,0.774 3.971,-3.435 -3.971,-3.436 z M 34,19.994 h -5.665 l 2.489,-2.153 -0.648,-0.774 -3.971,3.436 3.971,3.435 0.648,-0.774 -2.489,-2.153 H 34 Z M 17.881,10.694 17.119,10.034 20.5,6 23.881,10.034 23.119,10.694 21,8.164 v 4.717 H 20 V 8.165 Z" fill="#ffffff" id="path13028"/>
      </g>
      <text xml:space="preserve" style="font-style:normal;font-weight:normal;font-size:24px;line-height:1.25;font-family:sans-serif;text-align:center;text-anchor:middle;fill:#000000;fill-opacity:1;stroke:none" x="183.45534" y="572.28278" id="text41977"><tspan sodipodi:role="line" id="tspan41975" x="183.45534" y="572.28278">asg</tspan></text>
    </g>
  </g>
  </svg>