<?xml version="1.0" encoding="UTF-8" standalone="no"?>
<!-- Created with Inkscape (http://www.inkscape.org/) -->

<svg
   width="1200"
   height="900"
   viewBox="0 0 317.5 238.125"
   version="1.1"
   id="svg5"
   inkscape:version="1.1.2 (0a00cf5339, 2022-02-04)"
   sodipodi:docname="fleetmgmt sqs.svg"
   inkscape:export-filename="/home/kuba/bmw/4developers-wroclaw/img/timeout.png"
   inkscape:export-xdpi="300"
   inkscape:export-ydpi="300"
   xmlns:inkscape="http://www.inkscape.org/namespaces/inkscape"
   xmlns:sodipodi="http://sodipodi.sourceforge.net/DTD/sodipodi-0.dtd"
   xmlns:xlink="http://www.w3.org/1999/xlink"
   xmlns="http://www.w3.org/2000/svg"
   xmlns:svg="http://www.w3.org/2000/svg">
  <sodipodi:namedview
     id="namedview7"
     pagecolor="#ffffff"
     bordercolor="#666666"
     borderopacity="1.0"
     inkscape:pageshadow="2"
     inkscape:pageopacity="0.0"
     inkscape:pagecheckerboard="0"
     inkscape:document-units="mm"
     showgrid="true"
     showguides="false"
     inkscape:guide-bbox="true"
     inkscape:zoom="0.5020458"
     inkscape:cx="542.77916"
     inkscape:cy="409.3252"
     inkscape:window-width="1920"
     inkscape:window-height="1136"
     inkscape:window-x="0"
     inkscape:window-y="27"
     inkscape:window-maximized="1"
     inkscape:current-layer="layer8"
     width="1000px"
     units="px"
     inkscape:snap-object-midpoints="false"
     inkscape:snap-others="true"
     inkscape:snap-nodes="false"
     inkscape:snap-page="false"
     inkscape:snap-global="true"
     inkscape:snap-bbox="true"
     inkscape:snap-bbox-midpoints="true"
     inkscape:snap-center="true">
    <inkscape:grid
       type="xygrid"
       id="grid163600"
       spacingx="7.9375"
       spacingy="7.9375"
       dotted="false"
       empspacing="4" />
  </sodipodi:namedview>
  <defs
     id="defs2">
    <linearGradient
       id="linearGradient50875"
       inkscape:swatch="solid">
      <stop
         style="stop-color:#000000;stop-opacity:1;"
         offset="0"
         id="stop50873" />
    </linearGradient>
    <linearGradient
       id="linearGradient46069"
       inkscape:swatch="solid">
      <stop
         style="stop-color:#000000;stop-opacity:1;"
         offset="0"
         id="stop46067" />
    </linearGradient>
    <linearGradient
       id="linearGradient43211"
       inkscape:swatch="solid">
      <stop
         style="stop-color:#000000;stop-opacity:1;"
         offset="0"
         id="stop43209" />
    </linearGradient>
    <marker
       style="overflow:visible;"
       id="marker42569"
       refX="0.0"
       refY="0.0"
       orient="auto"
       inkscape:stockid="Arrow1Lend"
       inkscape:isstock="true">
      <path
         transform="scale(0.8) rotate(180) translate(12.5,0)"
         style="fill-rule:evenodd;fill:context-stroke;stroke:context-stroke;stroke-width:1.0pt;"
         d="M 0.0,0.0 L 5.0,-5.0 L -12.5,0.0 L 5.0,5.0 L 0.0,0.0 z "
         id="path1688" />
    </marker>
    <linearGradient
       id="linearGradient42564"
       inkscape:swatch="solid">
      <stop
         style="stop-color:#000000;stop-opacity:1;"
         offset="0"
         id="stop42562" />
    </linearGradient>
    <linearGradient
       id="linearGradient41770"
       inkscape:swatch="solid">
      <stop
         style="stop-color:#000000;stop-opacity:1;"
         offset="0"
         id="stop41768" />
    </linearGradient>
    <linearGradient
       id="linearGradient10766"
       inkscape:swatch="solid">
      <stop
         style="stop-color:#d72b6b;stop-opacity:1;"
         offset="0"
         id="stop10764" />
    </linearGradient>
    <linearGradient
       id="linearGradient3775"
       inkscape:swatch="solid">
      <stop
         style="stop-color:#000000;stop-opacity:1;"
         offset="0"
         id="stop3773" />
    </linearGradient>
    <linearGradient
       id="linearGradient3508"
       inkscape:swatch="solid">
      <stop
         style="stop-color:#000000;stop-opacity:1;"
         offset="0"
         id="stop3506" />
    </linearGradient>
    <linearGradient
       id="linearGradient2576"
       inkscape:swatch="solid">
      <stop
         style="stop-color:#000000;stop-opacity:1;"
         offset="0"
         id="stop2574" />
    </linearGradient>
    <linearGradient
       id="linearGradient1681"
       inkscape:swatch="solid">
      <stop
         style="stop-color:#000000;stop-opacity:1;"
         offset="0"
         id="stop1679" />
    </linearGradient>
    <linearGradient
       id="linearGradient258279"
       inkscape:swatch="solid">
      <stop
         style="stop-color:#000000;stop-opacity:1;"
         offset="0"
         id="stop258277" />
    </linearGradient>
    <linearGradient
       id="linearGradient251843"
       inkscape:swatch="solid">
      <stop
         style="stop-color:#d72b6b;stop-opacity:1;"
         offset="0"
         id="stop251841" />
    </linearGradient>
    <linearGradient
       id="linearGradient251837"
       inkscape:swatch="solid">
      <stop
         style="stop-color:#000000;stop-opacity:1;"
         offset="0"
         id="stop251835" />
    </linearGradient>
    <marker
       style="overflow:visible"
       id="Arrow1Lend"
       refX="0"
       refY="0"
       orient="auto"
       inkscape:stockid="Arrow1Lend"
       inkscape:isstock="true">
      <path
         transform="matrix(-0.8,0,0,-0.8,-10,0)"
         style="fill:context-stroke;fill-rule:evenodd;stroke:context-stroke;stroke-width:1pt"
         d="M 0,0 5,-5 -12.5,0 5,5 Z"
         id="path124459" />
    </marker>
    <marker
       style="overflow:visible"
       id="Arrow1Lend_Fnone_S-d72b6b"
       refX="0"
       refY="0"
       orient="auto"
       inkscape:stockid="Arrow1Lend"
       inkscape:isstock="true">
      <path
         transform="matrix(-0.8,0,0,-0.8,-10,0)"
         style="fill:#d72b6b;fill-rule:evenodd;stroke:#d72b6b;stroke-width:1pt"
         d="M 0,0 5,-5 -12.5,0 5,5 Z"
         id="path3834" />
    </marker>
    <marker
       style="overflow:visible"
       id="Arrow1Lend_Fnone_S-000000"
       refX="0"
       refY="0"
       orient="auto"
       inkscape:stockid="Arrow1Lend"
       inkscape:isstock="true">
      <path
         transform="matrix(-0.8,0,0,-0.8,-10,0)"
         style="fill:#000000;fill-rule:evenodd;stroke:#000000;stroke-width:1pt"
         d="M 0,0 5,-5 -12.5,0 5,5 Z"
         id="path3831" />
    </marker>
    <marker
       style="overflow:visible"
       id="Arrow1Lend_F-ff00ff_S-d72b6b"
       refX="0"
       refY="0"
       orient="auto"
       inkscape:stockid="Arrow1Lend"
       inkscape:isstock="true">
      <path
         transform="matrix(-0.8,0,0,-0.8,-10,0)"
         style="fill:#d72b6b;fill-rule:evenodd;stroke:#d72b6b;stroke-width:1pt"
         d="M 0,0 5,-5 -12.5,0 5,5 Z"
         id="path3828" />
    </marker>
    <linearGradient
       x1="0"
       y1="40"
       x2="40"
       y2="0"
       id="Arch_Amazon-App-Stream_32_svg__a"
       gradientUnits="userSpaceOnUse">
      <stop
         stop-color="#055F4E"
         offset="0%"
         id="stop193" />
      <stop
         stop-color="#56C0A7"
         offset="100%"
         id="stop195" />
    </linearGradient>
    <linearGradient
       inkscape:collect="always"
       xlink:href="#Arch_Amazon-App-Stream_32_svg__a"
       id="linearGradient5762"
       gradientUnits="userSpaceOnUse"
       x1="0"
       y1="40"
       x2="40"
       y2="0"
       gradientTransform="translate(-0.59656004,82.947658)" />
    <linearGradient
       x1="0"
       y1="40"
       x2="40"
       y2="0"
       id="Arch_Amazon-EC2-Auto-Scaling_32_svg__a"
       gradientUnits="userSpaceOnUse">
      <stop
         stop-color="#C8511B"
         offset="0%"
         id="stop13019" />
      <stop
         stop-color="#F90"
         offset="100%"
         id="stop13021" />
    </linearGradient>
    <linearGradient
       x1="0"
       y1="40"
       x2="40"
       y2="0"
       id="Arch_Amazon-EventBridge_32_svg__a"
       gradientUnits="userSpaceOnUse">
      <stop
         stop-color="#B0084D"
         offset="0%"
         id="stop13042" />
      <stop
         stop-color="#FF4F8B"
         offset="100%"
         id="stop13044" />
    </linearGradient>
    <linearGradient
       x1="0"
       y1="40"
       x2="40"
       y2="0"
       id="Arch_Amazon-DynamoDB_32_svg__a"
       gradientUnits="userSpaceOnUse">
      <stop
         stop-color="#2E27AD"
         offset="0%"
         id="stop13065" />
      <stop
         stop-color="#527FFF"
         offset="100%"
         id="stop13067" />
    </linearGradient>
    <linearGradient
       x1="0"
       y1="40"
       x2="40"
       y2="0"
       id="Arch_AWS-Simple-Notification-Service_32_svg__a"
       gradientUnits="userSpaceOnUse">
      <stop
         stop-color="#B0084D"
         offset="0%"
         id="stop13111" />
      <stop
         stop-color="#FF4F8B"
         offset="100%"
         id="stop13113" />
    </linearGradient>
    <linearGradient
       x1="0"
       y1="40"
       x2="40"
       y2="0"
       id="Arch_Elastic-Load-Balancing_32_svg__a"
       gradientUnits="userSpaceOnUse">
      <stop
         stop-color="#4D27A8"
         offset="0%"
         id="stop13134" />
      <stop
         stop-color="#A166FF"
         offset="100%"
         id="stop13136" />
    </linearGradient>
    <linearGradient
       x1="0"
       y1="40"
       x2="40"
       y2="0"
       id="Arch_Amazon-Elastic-Block-Store_32_svg__a"
       gradientUnits="userSpaceOnUse">
      <stop
         stop-color="#1B660F"
         offset="0%"
         id="stop13180" />
      <stop
         stop-color="#6CAE3E"
         offset="100%"
         id="stop13182" />
    </linearGradient>
    <linearGradient
       inkscape:collect="always"
       xlink:href="#Arch_Amazon-App-Stream_32_svg__a"
       id="linearGradient42179"
       gradientUnits="userSpaceOnUse"
       gradientTransform="translate(-0.59656004,82.947658)"
       x1="0"
       y1="40"
       x2="40"
       y2="0" />
    <linearGradient
       inkscape:collect="always"
       xlink:href="#Arch_Amazon-EventBridge_32_svg__a"
       id="linearGradient72931"
       gradientUnits="userSpaceOnUse"
       x1="0"
       y1="40"
       x2="40"
       y2="0" />
    <linearGradient
       inkscape:collect="always"
       xlink:href="#Arch_Amazon-Elastic-Block-Store_32_svg__a"
       id="linearGradient104937"
       gradientUnits="userSpaceOnUse"
       x1="0"
       y1="40"
       x2="40"
       y2="0" />
    <linearGradient
       inkscape:collect="always"
       xlink:href="#Arch_Amazon-EventBridge_32_svg__a"
       id="linearGradient124250"
       gradientUnits="userSpaceOnUse"
       x1="0"
       y1="40"
       x2="40"
       y2="0" />
    <linearGradient
       inkscape:collect="always"
       xlink:href="#Arch_Amazon-Elastic-Block-Store_32_svg__a"
       id="linearGradient124252"
       gradientUnits="userSpaceOnUse"
       x1="0"
       y1="40"
       x2="40"
       y2="0" />
    <linearGradient
       x1="0"
       y1="40"
       x2="40"
       y2="0"
       id="Arch_AWS-Lambda_32_svg__a-0"
       gradientUnits="userSpaceOnUse">
      <stop
         stop-color="#C8511B"
         offset="0%"
         id="stop197973" />
      <stop
         stop-color="#F90"
         offset="100%"
         id="stop197975" />
    </linearGradient>
    <linearGradient
       inkscape:collect="always"
       xlink:href="#Arch_AWS-Lambda_32_svg__a-0"
       id="linearGradient198795"
       gradientUnits="userSpaceOnUse"
       x1="0"
       y1="40"
       x2="40"
       y2="0" />
    <linearGradient
       inkscape:collect="always"
       xlink:href="#Arch_Amazon-EC2-Auto-Scaling_32_svg__a"
       id="linearGradient240131"
       gradientUnits="userSpaceOnUse"
       x1="0"
       y1="40"
       x2="40"
       y2="0" />
    <linearGradient
       inkscape:collect="always"
       xlink:href="#Arch_Amazon-EventBridge_32_svg__a"
       id="linearGradient248877"
       gradientUnits="userSpaceOnUse"
       x1="0"
       y1="40"
       x2="40"
       y2="0" />
    <linearGradient
       inkscape:collect="always"
       xlink:href="#linearGradient251843"
       id="linearGradient251839"
       x1="287.19391"
       y1="79.375"
       x2="290.90103"
       y2="79.375"
       gradientUnits="userSpaceOnUse" />
    <linearGradient
       inkscape:collect="always"
       xlink:href="#linearGradient251843"
       id="linearGradient251847"
       gradientUnits="userSpaceOnUse"
       x1="52.56237"
       y1="127"
       x2="138.49973"
       y2="127" />
    <linearGradient
       inkscape:collect="always"
       xlink:href="#Arch_AWS-Simple-Notification-Service_32_svg__a"
       id="linearGradient256161"
       gradientUnits="userSpaceOnUse"
       x1="0"
       y1="40"
       x2="40"
       y2="0" />
    <linearGradient
       inkscape:collect="always"
       xlink:href="#Arch_Amazon-EC2-Auto-Scaling_32_svg__a"
       id="linearGradient256574"
       gradientUnits="userSpaceOnUse"
       x1="0"
       y1="40"
       x2="40"
       y2="0" />
    <linearGradient
       inkscape:collect="always"
       xlink:href="#Arch_Amazon-EventBridge_32_svg__a"
       id="linearGradient257442"
       gradientUnits="userSpaceOnUse"
       x1="0"
       y1="40"
       x2="40"
       y2="0" />
    <linearGradient
       inkscape:collect="always"
       xlink:href="#linearGradient251843"
       id="linearGradient257444"
       gradientUnits="userSpaceOnUse"
       x1="287.19391"
       y1="79.375"
       x2="290.90103"
       y2="79.375"
       gradientTransform="translate(6.2507739)" />
    <linearGradient
       inkscape:collect="always"
       xlink:href="#linearGradient251843"
       id="linearGradient2578"
       x1="107.97829"
       y1="123.17372"
       x2="295.52917"
       y2="123.17372"
       gradientUnits="userSpaceOnUse" />
    <linearGradient
       inkscape:collect="always"
       xlink:href="#linearGradient251843"
       id="linearGradient3510"
       x1="199.50832"
       y1="161.72446"
       x2="203.21542"
       y2="161.72446"
       gradientUnits="userSpaceOnUse" />
    <linearGradient
       inkscape:collect="always"
       xlink:href="#linearGradient251843"
       id="linearGradient3777"
       x1="214.77148"
       y1="162.02034"
       x2="279.04114"
       y2="162.02034"
       gradientUnits="userSpaceOnUse" />
    <linearGradient
       inkscape:collect="always"
       xlink:href="#linearGradient3775"
       id="linearGradient10768"
       x1="121.28051"
       y1="195.26253"
       x2="186.63417"
       y2="195.26253"
       gradientUnits="userSpaceOnUse"
       gradientTransform="translate(-0.48454263)" />
    <linearGradient
       inkscape:collect="always"
       xlink:href="#Arch_Amazon-EC2-Auto-Scaling_32_svg__a"
       id="linearGradient12673"
       gradientUnits="userSpaceOnUse"
       x1="0"
       y1="40"
       x2="40"
       y2="0" />
    <linearGradient
       inkscape:collect="always"
       xlink:href="#linearGradient10766"
       id="linearGradient42566"
       x1="30.88114"
       y1="28.250118"
       x2="284.19095"
       y2="28.250118"
       gradientUnits="userSpaceOnUse" />
    <linearGradient
       inkscape:collect="always"
       xlink:href="#linearGradient10766"
       id="linearGradient43213"
       x1="5.1197085"
       y1="126.87533"
       x2="95.620522"
       y2="126.87533"
       gradientUnits="userSpaceOnUse" />
    <linearGradient
       inkscape:collect="always"
       xlink:href="#Arch_Amazon-EventBridge_32_svg__a"
       id="linearGradient49719"
       gradientUnits="userSpaceOnUse"
       x1="0"
       y1="40"
       x2="40"
       y2="0" />
    <linearGradient
       inkscape:collect="always"
       xlink:href="#linearGradient10766"
       id="linearGradient50877"
       x1="41.828209"
       y1="116.24811"
       x2="63.362431"
       y2="116.24811"
       gradientUnits="userSpaceOnUse" />
  </defs>
  <g
     inkscape:groupmode="layer"
     id="layer8"
     inkscape:label="fleetmgmt sqs"
     style="display:inline">
    <path
       style="display:inline;fill:#ff00ff;stroke:#d72b6b;stroke-width:0.365;stroke-linecap:butt;stroke-linejoin:miter;stroke-miterlimit:4;stroke-dasharray:none;stroke-opacity:1;marker-end:url(#Arrow1Lend_F-ff00ff_S-d72b6b)"
       d="m 52.562371,127 c 211.666659,0 211.666659,0 211.666659,0"
       id="path200161" />
    <text
       xml:space="preserve"
       style="font-style:normal;font-weight:normal;font-size:6.35px;line-height:1.25;font-family:sans-serif;display:inline;fill:#d72b6b;fill-opacity:1;stroke:none;stroke-width:0.264583"
       x="158.61668"
       y="124.48353"
       id="text200165"><tspan
         sodipodi:role="line"
         id="tspan200163"
         style="font-size:6.35px;text-align:center;text-anchor:middle;fill:#d72b6b;fill-opacity:1;stroke-width:0.264583"
         x="158.61668"
         y="124.48353">sqs</tspan></text>
    <g
       id="g42064"
       transform="matrix(0.26458333,0,0,0.26458333,-38.314649,56.273758)"
       style="display:inline;fill:none;fill-rule:evenodd">
      <g
         fill="none"
         fill-rule="evenodd"
         id="g13122"
         transform="translate(724.57106,502.00095)">
        <path
           d="M 0,0 H 40 V 40 H 0 Z"
           fill="url(#Arch_AWS-Simple-Notification-Service_32_svg__a)"
           id="path13118"
           style="fill:url(#Arch_AWS-Simple-Notification-Service_32_svg__a)" />
        <path
           d="M 7.01,20.078 A 1.1,1.1 0 0 1 8.115,18.985 1.1,1.1 0 0 1 9.219,20.078 1.1,1.1 0 0 1 8.115,21.171 1.1,1.1 0 0 1 7.01,20.078 Z M 20.776,33 C 14.813,33 9.645,28.375 8.47,22.136 a 2.1,2.1 0 0 0 1.69,-1.558 h 2.949 v -1 h -2.95 A 2.104,2.104 0 0 0 8.506,18.024 C 9.72,12.252 14.838,8 20.776,8 23.709,8 26.13,8.643 27.97,9.911 L 28.545,9.09 C 26.534,7.703 23.92,7 20.776,7 14.266,7 8.672,11.726 7.468,18.096 6.62,18.368 6,19.149 6,20.078 6,20.994 6.602,21.766 7.431,22.049 8.591,28.894 14.24,34 20.776,34 c 3.285,0 6.788,-1.667 8.786,-3.094 l -0.59,-0.811 C 26.947,31.541 23.627,33 20.777,33 Z M 14.79,18.242 c 1.111,0.274 2.523,0.321 3.343,0.321 0.833,0 2.271,-0.047 3.402,-0.32 l -2.401,5.014 a 0.507,0.507 0 0 0 -0.048,0.215 v 2.324 l -1.957,0.915 v -3.239 a 0.514,0.514 0 0 0 -0.044,-0.206 z m 3.343,-1.757 c 2.314,0 3.554,0.311 3.951,0.52 -0.417,0.234 -1.745,0.558 -3.95,0.558 -2.184,0 -3.483,-0.327 -3.873,-0.558 0.37,-0.206 1.582,-0.52 3.872,-0.52 z m -1.78,11.438 a 0.511,0.511 0 0 0 0.486,0.03 l 2.968,-1.388 a 0.5,0.5 0 0 0 0.288,-0.452 V 23.584 L 23.004,17.51 A 0.806,0.806 0 0 0 23.193,17 c 0,-1.252 -2.751,-1.515 -5.06,-1.515 -2.266,0 -4.969,0.263 -4.969,1.515 0,0.19 0.067,0.355 0.18,0.502 l 2.775,6.077 V 27.5 c 0,0.172 0.088,0.331 0.235,0.423 z M 30.877,27 a 1.1,1.1 0 0 1 1.104,1.093 1.1,1.1 0 0 1 -1.104,1.093 A 1.1,1.1 0 0 1 29.773,28.093 1.1,1.1 0 0 1 30.876,27 Z m 0,-16.03 a 1.1,1.1 0 0 1 1.104,1.093 1.1,1.1 0 0 1 -1.104,1.093 1.1,1.1 0 0 1 -1.104,-1.093 1.1,1.1 0 0 1 1.104,-1.093 z m 1.01,8.015 a 1.1,1.1 0 0 1 1.104,1.093 1.1,1.1 0 0 1 -1.104,1.093 1.1,1.1 0 0 1 -1.104,-1.093 1.1,1.1 0 0 1 1.104,-1.093 z m -4.607,1.593 h 2.561 A 2.108,2.108 0 0 0 31.887,22.171 2.106,2.106 0 0 0 34,20.078 2.106,2.106 0 0 0 31.886,17.985 c -0.992,0 -1.818,0.681 -2.046,1.593 h -2.56 v -7.015 h 1.551 a 2.108,2.108 0 0 0 2.046,1.593 2.106,2.106 0 0 0 2.114,-2.093 2.106,2.106 0 0 0 -2.114,-2.093 c -0.991,0 -1.818,0.681 -2.046,1.593 h -2.056 a 0.502,0.502 0 0 0 -0.505,0.5 v 7.515 h -3.061 v 1 h 3.061 v 7.515 c 0,0.277 0.226,0.5 0.505,0.5 h 2.056 a 2.108,2.108 0 0 0 2.046,1.593 2.106,2.106 0 0 0 2.114,-2.093 A 2.106,2.106 0 0 0 30.876,26 c -0.991,0 -1.818,0.681 -2.046,1.593 h -1.55 z"
           fill="#ffffff"
           id="path13120" />
      </g>
      <text
         xml:space="preserve"
         style="font-style:normal;font-weight:normal;font-size:24px;line-height:1.25;font-family:sans-serif;text-align:center;text-anchor:middle;fill:#000000;fill-opacity:1;stroke:none"
         x="744.57104"
         y="572.28278"
         id="text41993"><tspan
           sodipodi:role="line"
           id="tspan41991"
           x="744.57104"
           y="572.28278">sns</tspan></text>
    </g>
    <path
       style="display:inline;fill:none;stroke:#000000;stroke-width:0.365;stroke-linecap:butt;stroke-linejoin:miter;stroke-miterlimit:4;stroke-dasharray:none;stroke-opacity:1;marker-end:url(#Arrow1Lend_Fnone_S-000000)"
       d="M 268.51648,142.88999 174.625,189.69422"
       id="path214468"
       sodipodi:nodetypes="cc" />
    <path
       style="display:inline;fill:none;stroke:#d72b6b;stroke-width:0.365;stroke-linecap:butt;stroke-linejoin:miter;stroke-miterlimit:4;stroke-dasharray:none;stroke-opacity:1;marker-end:url(#Arrow1Lend_Fnone_S-d72b6b)"
       d="M 142.47212,190.16601 48.580636,143.36178"
       id="path214816"
       sodipodi:nodetypes="cc" />
    <text
       xml:space="preserve"
       style="font-style:normal;font-weight:normal;font-size:6.35px;line-height:1.25;font-family:sans-serif;display:inline;fill:#d72b6b;fill-opacity:1;stroke:none;stroke-width:0.264583"
       x="111.04749"
       y="168.38351"
       id="text214838"><tspan
         sodipodi:role="line"
         id="tspan214836"
         style="font-size:6.35px;text-align:center;text-anchor:middle;fill:#d72b6b;fill-opacity:1;stroke-width:0.264583"
         x="111.04749"
         y="168.38351">sqs*</tspan></text>
  </g>
</svg>
